<?xml version="1.0" encoding="UTF-8"?>
<!DOCTYPE svg PUBLIC "-//W3C//DTD SVG 1.1//EN" "http://www.w3.org/Graphics/SVG/1.1/DTD/svg11.dtd">
<svg xmlns="http://www.w3.org/2000/svg" version="1.1" width="500px" height="498px" style="shape-rendering:geometricPrecision; text-rendering:geometricPrecision; image-rendering:optimizeQuality; fill-rule:evenodd; clip-rule:evenodd" xmlns:xlink="http://www.w3.org/1999/xlink">
<g><path style="opacity:0.999" fill="#ed2124" d="M 304.5,17.5 C 305.408,22.0219 308.075,24.6885 312.5,25.5C 314.549,26.8818 316.215,28.5484 317.5,30.5C 318.301,32.0418 318.634,33.7085 318.5,35.5C 320.821,36.4767 323.154,37.4767 325.5,38.5C 334.19,46.191 342.523,54.191 350.5,62.5C 350.81,64.1436 351.81,65.1436 353.5,65.5C 363.167,75.5 372.833,85.5 382.5,95.5C 384.331,98.0792 385.998,100.746 387.5,103.5C 343.833,103.5 300.167,103.5 256.5,103.5C 256.833,87.8192 256.499,72.1525 255.5,56.5C 254.422,54.5388 253.089,52.8721 251.5,51.5C 250.032,50.1943 248.699,48.6943 247.5,47C 249.439,45.5679 250.772,43.7346 251.5,41.5C 254.109,40.5569 256.109,38.8903 257.5,36.5C 257.5,35.1667 258.167,34.5 259.5,34.5C 261.89,33.1092 263.557,31.1092 264.5,28.5C 269.833,25.1667 274.167,20.8333 277.5,15.5C 281.431,13.0968 285.764,11.7634 290.5,11.5C 295.611,12.6023 300.278,14.6023 304.5,17.5 Z"/></g>
<g><path style="opacity:0.494" fill="#f36f6f" d="M 277.5,15.5 C 274.167,20.8333 269.833,25.1667 264.5,28.5C 265.167,27.1667 265.833,25.8333 266.5,24.5C 269.943,21.2714 273.61,18.2714 277.5,15.5 Z"/></g>
<g><path style="opacity:0.949" fill="#f14b49" d="M 304.5,17.5 C 307.833,19.5 310.5,22.1667 312.5,25.5C 308.075,24.6885 305.408,22.0219 304.5,17.5 Z"/></g>
<g><path style="opacity:0.051" fill="#fee4e5" d="M 266.5,24.5 C 265.833,25.8333 265.167,27.1667 264.5,28.5C 261.764,29.5726 260.097,31.5726 259.5,34.5C 258.167,34.5 257.5,35.1667 257.5,36.5C 254.573,37.0971 252.573,38.7638 251.5,41.5C 248.827,42.8395 246.827,44.8395 245.5,47.5C 244.833,47.5 244.167,47.5 243.5,47.5C 243.5,46.8333 243.5,46.1667 243.5,45.5C 245.027,45.573 246.027,44.9063 246.5,43.5C 250.918,38.3834 255.585,33.3834 260.5,28.5C 262.264,26.7224 264.264,25.3891 266.5,24.5 Z"/></g>
<g><path style="opacity:0.51" fill="#f46a6a" d="M 264.5,28.5 C 263.557,31.1092 261.89,33.1092 259.5,34.5C 260.097,31.5726 261.764,29.5726 264.5,28.5 Z"/></g>
<g><path style="opacity:0.957" fill="#f14a48" d="M 317.5,30.5 C 320.833,32.5 323.5,35.1667 325.5,38.5C 323.5,35.1667 320.833,32.5 317.5,30.5 Z"/></g>
<g><path style="opacity:0.549" fill="#f46b6a" d="M 257.5,36.5 C 256.109,38.8903 254.109,40.5569 251.5,41.5C 252.573,38.7638 254.573,37.0971 257.5,36.5 Z"/></g>
<g><path style="opacity:0.069" fill="#fefffe" d="M 246.5,43.5 C 246.027,44.9063 245.027,45.573 243.5,45.5C 201.167,45.5 158.833,45.5 116.5,45.5C 115.833,45.5 115.167,45.5 114.5,45.5C 158.154,43.5052 202.154,42.8386 246.5,43.5 Z"/></g>
<g><path style="opacity:0.471" fill="#d55fa4" d="M 116.5,45.5 C 158.833,45.5 201.167,45.5 243.5,45.5C 243.5,46.1667 243.5,46.8333 243.5,47.5C 200.833,47.5 158.167,47.5 115.5,47.5C 115.833,46.8333 116.167,46.1667 116.5,45.5 Z"/></g>
<g><path style="opacity:0.026" fill="#f8e2ee" d="M 114.5,45.5 C 115.167,45.5 115.833,45.5 116.5,45.5C 116.167,46.1667 115.833,46.8333 115.5,47.5C 112.359,48.9039 109.359,50.5706 106.5,52.5C 106.5,51.8333 106.5,51.1667 106.5,50.5C 107.733,46.8682 110.399,45.2016 114.5,45.5 Z"/></g>
<g><path style="opacity:0.999" fill="#c31c7d" d="M 115.5,47.5 C 158.167,47.5 200.833,47.5 243.5,47.5C 244.167,47.5 244.833,47.5 245.5,47.5C 236.383,58.7829 226.05,68.9495 214.5,78C 206.601,85.3956 199.268,93.229 192.5,101.5C 191.761,101.369 191.094,101.536 190.5,102C 178.279,114.221 166.113,126.387 154,138.5C 153.22,140.387 153.387,142.054 154.5,143.5C 154.5,143.833 154.5,144.167 154.5,144.5C 153.761,144.631 153.094,144.464 152.5,144C 141.833,133.333 131.167,122.667 120.5,112C 115.742,109.856 110.742,109.023 105.5,109.5C 105.5,109.167 105.5,108.833 105.5,108.5C 105.207,90.4657 105.54,72.4657 106.5,54.5C 106.5,53.8333 106.5,53.1667 106.5,52.5C 109.359,50.5706 112.359,48.9039 115.5,47.5 Z"/></g>
<g><path style="opacity:1" fill="#c21f5b" d="M 251.5,41.5 C 250.772,43.7346 249.439,45.5679 247.5,47C 248.699,48.6943 250.032,50.1943 251.5,51.5C 251.706,54.2384 252.706,56.5718 254.5,58.5C 254.5,90.5 254.5,122.5 254.5,154.5C 248.824,154.334 243.157,154.501 237.5,155C 236.944,155.383 236.611,155.883 236.5,156.5C 233.428,156.183 230.428,156.516 227.5,157.5C 224.705,157.938 222.372,158.938 220.5,160.5C 215.436,161.202 211.103,163.202 207.5,166.5C 207.167,166.5 206.833,166.5 206.5,166.5C 203.489,167.669 200.822,169.336 198.5,171.5C 197.71,172.401 196.71,173.068 195.5,173.5C 193.596,173.738 192.262,174.738 191.5,176.5C 190.5,177.167 189.5,177.833 188.5,178.5C 187.833,178.5 187.167,178.5 186.5,178.5C 185.5,177.167 184.5,175.833 183.5,174.5C 181.472,170.472 178.472,167.472 174.5,165.5C 170.5,159.5 165.5,154.5 159.5,150.5C 157.833,148.5 156.167,146.5 154.5,144.5C 154.5,144.167 154.5,143.833 154.5,143.5C 154.5,142.167 154.5,140.833 154.5,139.5C 155.675,139.719 156.675,139.386 157.5,138.5C 158.901,136.131 160.568,133.964 162.5,132C 165.539,130.969 168.039,129.135 170,126.5C 171.031,123.461 172.865,120.961 175.5,119C 178.912,117.424 181.912,115.257 184.5,112.5C 185.223,108.443 187.556,106.11 191.5,105.5C 191.433,104.041 191.766,102.708 192.5,101.5C 199.268,93.229 206.601,85.3956 214.5,78C 226.05,68.9495 236.383,58.7829 245.5,47.5C 246.827,44.8395 248.827,42.8395 251.5,41.5 Z"/></g>
<g><path style="opacity:0.014" fill="#fcfcfc" d="M 106.5,50.5 C 106.5,51.1667 106.5,51.8333 106.5,52.5C 106.5,53.1667 106.5,53.8333 106.5,54.5C 104.824,55.1834 104.157,56.5168 104.5,58.5C 102.621,58.3932 102.288,58.8932 103.5,60C 102.676,74.0919 102.176,88.2586 102,102.5C 101.617,103.056 101.117,103.389 100.5,103.5C 100.333,89.496 100.5,75.496 101,61.5C 101.511,59.1218 102.178,56.7885 103,54.5C 103.498,52.4556 104.665,51.1223 106.5,50.5 Z"/></g>
<g><path style="opacity:1" fill="#de414d" d="M 251.5,51.5 C 253.089,52.8721 254.422,54.5388 255.5,56.5C 256.499,72.1525 256.833,87.8192 256.5,103.5C 256.5,120.833 256.5,138.167 256.5,155.5C 256.167,155.5 255.833,155.5 255.5,155.5C 255.833,122.427 255.499,90.0932 254.5,58.5C 252.706,56.5718 251.706,54.2384 251.5,51.5 Z"/></g>
<g><path style="opacity:1" fill="#ce4774" d="M 255.5,155.5 C 249.108,155.249 242.775,155.582 236.5,156.5C 236.611,155.883 236.944,155.383 237.5,155C 243.157,154.501 248.824,154.334 254.5,154.5C 254.5,122.5 254.5,90.5 254.5,58.5C 255.499,90.0932 255.833,122.427 255.5,155.5 Z"/></g>
<g><path style="opacity:0.294" fill="#f79d9d" d="M 350.5,62.5 C 352.19,62.8564 353.19,63.8564 353.5,65.5C 351.81,65.1436 350.81,64.1436 350.5,62.5 Z"/></g>
<g><path style="opacity:0.176" fill="#fde5e5" d="M 381.5,89.5 C 383.112,92.1311 384.779,94.7978 386.5,97.5C 385.167,96.8333 383.833,96.1667 382.5,95.5C 372.833,85.5 363.167,75.5 353.5,65.5C 353.19,63.8564 352.19,62.8564 350.5,62.5C 342.523,54.191 334.19,46.191 325.5,38.5C 323.5,35.1667 320.833,32.5 317.5,30.5C 316.215,28.5484 314.549,26.8818 312.5,25.5C 310.5,22.1667 307.833,19.5 304.5,17.5C 303.215,15.5484 301.549,13.8818 299.5,12.5C 298.909,11.8485 298.243,11.1818 297.5,10.5C 295.167,10.1667 292.833,9.83333 290.5,9.5C 287.731,9.52856 285.397,10.1952 283.5,11.5C 280.446,11.354 278.446,12.6874 277.5,15.5C 273.61,18.2714 269.943,21.2714 266.5,24.5C 270.267,18.2316 275.267,13.0649 281.5,9C 288.582,8.11583 295.582,8.44916 302.5,10C 326.21,33.8418 349.876,57.6752 373.5,81.5C 376.617,83.7491 379.283,86.4158 381.5,89.5 Z"/></g>
<g><path style="opacity:0.957" fill="#f04a49" d="M 299.5,12.5 C 301.549,13.8818 303.215,15.5484 304.5,17.5C 300.278,14.6023 295.611,12.6023 290.5,11.5C 285.764,11.7634 281.431,13.0968 277.5,15.5C 278.446,12.6874 280.446,11.354 283.5,11.5C 288.931,10.0706 294.264,10.4039 299.5,12.5 Z"/></g>
<g><path style="opacity:0.29" fill="#f5898b" d="M 299.5,12.5 C 294.264,10.4039 288.931,10.0706 283.5,11.5C 285.397,10.1952 287.731,9.52856 290.5,9.5C 292.833,9.83333 295.167,10.1667 297.5,10.5C 298.243,11.1818 298.909,11.8485 299.5,12.5 Z"/></g>
<g><path style="opacity:0.565" fill="#d973af" d="M 106.5,54.5 C 105.54,72.4657 105.207,90.4657 105.5,108.5C 105.167,108.5 104.833,108.5 104.5,108.5C 104.5,91.8333 104.5,75.1667 104.5,58.5C 104.157,56.5168 104.824,55.1834 106.5,54.5 Z"/></g>
<g><path style="opacity:0.114" fill="#ecc4dc" d="M 104.5,58.5 C 104.5,75.1667 104.5,91.8333 104.5,108.5C 103.833,109.167 103.167,109.833 102.5,110.5C 102.975,107.918 102.308,105.918 100.5,104.5C 100.5,104.167 100.5,103.833 100.5,103.5C 101.117,103.389 101.617,103.056 102,102.5C 102.176,88.2586 102.676,74.0919 103.5,60C 102.288,58.8932 102.621,58.3932 104.5,58.5 Z"/></g>
<g><path style="opacity:0.957" fill="#f25855" d="M 382.5,95.5 C 383.833,96.1667 385.167,96.8333 386.5,97.5C 387.502,99.0109 388.169,100.678 388.5,102.5C 388.5,102.833 388.5,103.167 388.5,103.5C 388.167,103.5 387.833,103.5 387.5,103.5C 385.998,100.746 384.331,98.0792 382.5,95.5 Z"/></g>
<g><path style="opacity:0.036" fill="#fdfbfb" d="M 381.5,89.5 C 385.337,92.8372 389.004,96.3372 392.5,100C 408.5,100.333 424.5,100.667 440.5,101C 443.152,101.353 445.152,102.52 446.5,104.5C 427.272,102.603 407.939,101.936 388.5,102.5C 388.169,100.678 387.502,99.0109 386.5,97.5C 384.779,94.7978 383.112,92.1311 381.5,89.5 Z"/></g>
<g><path style="opacity:0.243" fill="#f9b76d" d="M 388.5,103.5 C 388.5,103.167 388.5,102.833 388.5,102.5C 407.939,101.936 427.272,102.603 446.5,104.5C 447.473,106.149 448.473,107.816 449.5,109.5C 449.167,109.5 448.833,109.5 448.5,109.5C 446.153,106.663 443.153,104.83 439.5,104C 422.503,103.5 405.503,103.333 388.5,103.5 Z"/></g>
<g><path style="opacity:0.027" fill="#f8f6fa" d="M 100.5,104.5 C 102.308,105.918 102.975,107.918 102.5,110.5C 100.821,110.285 99.8212,110.952 99.5,112.5C 97.8679,113.446 96.2012,114.446 94.5,115.5C 90.7107,119.052 87.3774,123.052 84.5,127.5C 83.1667,127.833 81.8333,128.167 80.5,128.5C 86.2368,120.763 92.9035,114.096 100.5,108.5C 100.5,107.167 100.5,105.833 100.5,104.5 Z"/></g>
<g><path style="opacity:1" fill="#f26722" d="M 256.5,103.5 C 300.167,103.5 343.833,103.5 387.5,103.5C 387.833,103.5 388.167,103.5 388.5,103.5C 389.758,107.123 389.758,110.79 388.5,114.5C 385.119,118.871 381.785,123.204 378.5,127.5C 373.139,130.861 368.806,135.194 365.5,140.5C 362.737,142.494 360.071,144.66 357.5,147C 356.252,148.4 355.252,149.9 354.5,151.5C 351.81,153.193 349.81,155.527 348.5,158.5C 347.5,160.167 346.167,161.5 344.5,162.5C 340.5,164.5 337.5,167.5 335.5,171.5C 334.5,171.833 333.833,172.5 333.5,173.5C 331.685,174.63 329.685,175.296 327.5,175.5C 325.818,179.483 323.151,182.817 319.5,185.5C 319.167,185.5 318.833,185.5 318.5,185.5C 314.485,181.487 310.152,177.821 305.5,174.5C 302.345,171.419 298.678,169.086 294.5,167.5C 293.833,166.833 293.167,166.167 292.5,165.5C 290.293,163.485 287.626,162.485 284.5,162.5C 283.833,162.5 283.5,162.167 283.5,161.5C 282.192,160.768 280.858,159.934 279.5,159C 273.564,157.534 267.564,156.367 261.5,155.5C 259.833,155.5 258.167,155.5 256.5,155.5C 256.5,138.167 256.5,120.833 256.5,103.5 Z"/></g>
<g><path style="opacity:1" fill="#f7921e" d="M 388.5,103.5 C 405.503,103.333 422.503,103.5 439.5,104C 443.153,104.83 446.153,106.663 448.5,109.5C 450.457,153.743 451.124,198.076 450.5,242.5C 447.167,239.5 443.833,236.5 440.5,233.5C 414.77,207.654 389.103,181.821 363.5,156C 361.44,154.304 359.107,153.137 356.5,152.5C 353.557,154.106 350.891,156.106 348.5,158.5C 349.81,155.527 351.81,153.193 354.5,151.5C 357.329,151.675 358.996,150.342 359.5,147.5C 361.193,145.973 363.027,144.64 365,143.5C 365.483,142.552 365.649,141.552 365.5,140.5C 368.824,137.894 372.157,135.227 375.5,132.5C 377.278,131.274 378.278,129.607 378.5,127.5C 381.785,123.204 385.119,118.871 388.5,114.5C 389.758,110.79 389.758,107.123 388.5,103.5 Z"/></g>
<g><path style="opacity:1" fill="#7e2c91" d="M 105.5,109.5 C 110.742,109.023 115.742,109.856 120.5,112C 131.167,122.667 141.833,133.333 152.5,144C 153.094,144.464 153.761,144.631 154.5,144.5C 156.167,146.5 157.833,148.5 159.5,150.5C 164.167,155.833 169.167,160.833 174.5,165.5C 177.215,168.882 180.215,171.882 183.5,174.5C 184.5,175.833 185.5,177.167 186.5,178.5C 184.833,181.167 183.167,183.833 181.5,186.5C 179.548,187.785 177.882,189.451 176.5,191.5C 174.738,192.262 173.738,193.596 173.5,195.5C 173.5,196.167 173.167,196.5 172.5,196.5C 170.841,199.795 169.174,203.128 167.5,206.5C 166.542,206.953 165.708,207.619 165,208.5C 164.56,210.866 164.06,213.199 163.5,215.5C 162.662,215.842 162.328,216.508 162.5,217.5C 161.001,218.678 160.001,220.345 159.5,222.5C 157.868,229.087 156.868,235.753 156.5,242.5C 139.5,242.5 122.5,242.5 105.5,242.5C 105.5,241.833 105.5,241.167 105.5,240.5C 105.5,196.833 105.5,153.167 105.5,109.5 Z"/></g>
<g><path style="opacity:0.213" fill="#fffdfb" d="M 446.5,104.5 C 448.39,104.297 449.89,104.963 451,106.5C 452.645,108.925 453.811,111.592 454.5,114.5C 455.5,157.828 455.833,201.162 455.5,244.5C 454.833,244.833 454.167,245.167 453.5,245.5C 452.449,244.778 451.782,243.778 451.5,242.5C 452.117,242.389 452.617,242.056 453,241.5C 453.167,220.5 453.333,199.5 453.5,178.5C 453.5,157.156 452.833,136.156 451.5,115.5C 450.833,113.5 450.167,111.5 449.5,109.5C 448.473,107.816 447.473,106.149 446.5,104.5 Z"/></g>
<g><path style="opacity:0.998" fill="#632e91" d="M 105.5,240.5 C 105.5,241.167 105.5,241.833 105.5,242.5C 88.7991,241.848 72.4658,242.515 56.5,244.5C 55.5,244.833 54.8333,245.5 54.5,246.5C 51.4911,248.535 50.4911,251.202 51.5,254.5C 51.1667,254.5 50.8333,254.5 50.5,254.5C 49.7777,253.449 48.7777,252.782 47.5,252.5C 45.5,248.5 42.5,245.5 38.5,243.5C 38.5,242.167 37.8333,241.5 36.5,241.5C 36.5,240.167 35.8333,239.5 34.5,239.5C 34.5,238.167 33.8333,237.5 32.5,237.5C 30.5,233.5 27.5,230.5 23.5,228.5C 23.2178,227.222 22.5511,226.222 21.5,225.5C 19.9989,221.08 17.4989,217.413 14,214.5C 12.3274,208.678 12.8274,203.011 15.5,197.5C 17.9354,196.73 19.2687,195.063 19.5,192.5C 20.8333,192.5 21.5,191.833 21.5,190.5C 22.8333,190.5 23.5,189.833 23.5,188.5C 25.1748,186.851 27.1748,185.518 29.5,184.5C 31.2779,183.274 32.2779,181.607 32.5,179.5C 33.1667,179.5 33.8333,179.5 34.5,179.5C 37.5054,177.16 40.5054,174.826 43.5,172.5C 45.4758,168.879 48.1424,165.879 51.5,163.5C 52.3857,162.675 52.719,161.675 52.5,160.5C 53.1667,159.167 53.8333,157.833 54.5,156.5C 55.609,156.443 56.609,156.11 57.5,155.5C 62.3602,153.968 65.0269,150.635 65.5,145.5C 67.8783,144.308 69.8783,142.641 71.5,140.5C 72.9305,140.579 74.2638,140.246 75.5,139.5C 76.9308,136.961 78.5975,134.628 80.5,132.5C 80.5,130.5 81.5,129.5 83.5,129.5C 85.3936,128.952 87.0603,127.952 88.5,126.5C 91.1433,122.023 94.6433,118.357 99,115.5C 99.4828,114.552 99.6495,113.552 99.5,112.5C 100.583,112.461 101.583,112.127 102.5,111.5C 102.836,154.841 103.836,197.841 105.5,240.5 Z"/></g>
<g><path style="opacity:0.616" fill="#9570b4" d="M 99.5,112.5 C 99.6495,113.552 99.4828,114.552 99,115.5C 94.6433,118.357 91.1433,122.023 88.5,126.5C 87.0603,127.952 85.3936,128.952 83.5,129.5C 83.8333,128.833 84.1667,128.167 84.5,127.5C 87.3774,123.052 90.7107,119.052 94.5,115.5C 96.2012,114.446 97.8679,113.446 99.5,112.5 Z"/></g>
<g><path style="opacity:1" fill="#c62b6b" d="M 192.5,101.5 C 191.766,102.708 191.433,104.041 191.5,105.5C 187.556,106.11 185.223,108.443 184.5,112.5C 181.912,115.257 178.912,117.424 175.5,119C 172.865,120.961 171.031,123.461 170,126.5C 168.039,129.135 165.539,130.969 162.5,132C 160.568,133.964 158.901,136.131 157.5,138.5C 156.675,139.386 155.675,139.719 154.5,139.5C 154.5,140.833 154.5,142.167 154.5,143.5C 153.387,142.054 153.22,140.387 154,138.5C 166.113,126.387 178.279,114.221 190.5,102C 191.094,101.536 191.761,101.369 192.5,101.5 Z"/></g>
<g><path style="opacity:0.169" fill="#d7c9e3" d="M 84.5,127.5 C 84.1667,128.167 83.8333,128.833 83.5,129.5C 81.5,129.5 80.5,130.5 80.5,132.5C 79.1667,132.5 77.8333,132.5 76.5,132.5C 77.1667,130.5 78.5,129.167 80.5,128.5C 81.8333,128.167 83.1667,127.833 84.5,127.5 Z"/></g>
<g><path style="opacity:1" fill="#864ea2" d="M 104.5,108.5 C 104.833,108.5 105.167,108.5 105.5,108.5C 105.5,108.833 105.5,109.167 105.5,109.5C 105.5,153.167 105.5,196.833 105.5,240.5C 103.836,197.841 102.836,154.841 102.5,111.5C 101.583,112.127 100.583,112.461 99.5,112.5C 99.8212,110.952 100.821,110.285 102.5,110.5C 103.167,109.833 103.833,109.167 104.5,108.5 Z"/></g>
<g><path style="opacity:1" fill="#f48139" d="M 378.5,127.5 C 378.278,129.607 377.278,131.274 375.5,132.5C 372.157,135.227 368.824,137.894 365.5,140.5C 368.806,135.194 373.139,130.861 378.5,127.5 Z"/></g>
<g><path style="opacity:0.031" fill="#eeebf3" d="M 76.5,132.5 C 75.9029,135.427 74.2362,137.427 71.5,138.5C 72.4735,135.865 74.1402,133.865 76.5,132.5 Z"/></g>
<g><path style="opacity:0.824" fill="#9069b0" d="M 76.5,132.5 C 77.8333,132.5 79.1667,132.5 80.5,132.5C 78.5975,134.628 76.9308,136.961 75.5,139.5C 74.2638,140.246 72.9305,140.579 71.5,140.5C 71.5,139.833 71.5,139.167 71.5,138.5C 74.2362,137.427 75.9029,135.427 76.5,132.5 Z"/></g>
<g><path style="opacity:0.094" fill="#ccbcdb" d="M 71.5,138.5 C 71.5,139.167 71.5,139.833 71.5,140.5C 69.8783,142.641 67.8783,144.308 65.5,145.5C 65.5,144.833 65.5,144.167 65.5,143.5C 66.865,141.14 68.865,139.473 71.5,138.5 Z"/></g>
<g><path style="opacity:0.016" fill="#fefffe" d="M 65.5,143.5 C 65.5,144.167 65.5,144.833 65.5,145.5C 64.8333,145.5 64.1667,145.5 63.5,145.5C 63.5,144.167 64.1667,143.5 65.5,143.5 Z"/></g>
<g><path style="opacity:1" fill="#f48539" d="M 365.5,140.5 C 365.649,141.552 365.483,142.552 365,143.5C 363.027,144.64 361.193,145.973 359.5,147.5C 358.996,150.342 357.329,151.675 354.5,151.5C 355.252,149.9 356.252,148.4 357.5,147C 360.071,144.66 362.737,142.494 365.5,140.5 Z"/></g>
<g><path style="opacity:0.086" fill="#f2ecf6" d="M 63.5,145.5 C 62.9029,148.427 61.2362,150.427 58.5,151.5C 59.4735,148.865 61.1402,146.865 63.5,145.5 Z"/></g>
<g><path style="opacity:1" fill="#b53c7d" d="M 159.5,150.5 C 165.5,154.5 170.5,159.5 174.5,165.5C 169.167,160.833 164.167,155.833 159.5,150.5 Z"/></g>
<g><path style="opacity:0.835" fill="#8c66ae" d="M 63.5,145.5 C 64.1667,145.5 64.8333,145.5 65.5,145.5C 65.0269,150.635 62.3602,153.968 57.5,155.5C 58.2341,154.292 58.5674,152.959 58.5,151.5C 61.2362,150.427 62.9029,148.427 63.5,145.5 Z"/></g>
<g><path style="opacity:0.09" fill="#e1d5ea" d="M 58.5,151.5 C 58.5674,152.959 58.2341,154.292 57.5,155.5C 56.609,156.11 55.609,156.443 54.5,156.5C 54.5,155.833 54.5,155.167 54.5,154.5C 55.0347,152.554 56.368,151.554 58.5,151.5 Z"/></g>
<g><path style="opacity:1" fill="#fec511" d="M 440.5,233.5 C 443.463,237.798 446.797,241.798 450.5,245.5C 448.835,248.49 446.502,250.824 443.5,252.5C 427.201,253.804 410.867,253.804 394.5,252.5C 393.812,251.145 392.812,250.145 391.5,249.5C 391.167,248.5 390.5,247.833 389.5,247.5C 388.02,245.588 386.02,244.421 383.5,244C 370.171,243.5 356.837,243.333 343.5,243.5C 343.5,243.167 343.5,242.833 343.5,242.5C 343.433,235.127 342.1,228.127 339.5,221.5C 338.194,220.533 337.527,219.199 337.5,217.5C 336.351,212.712 334.351,208.378 331.5,204.5C 329.737,199.837 327.07,195.837 323.5,192.5C 322.5,190.5 321.5,188.5 320.5,186.5C 325.221,182.446 329.554,178.113 333.5,173.5C 333.833,172.5 334.5,171.833 335.5,171.5C 338.833,168.833 341.833,165.833 344.5,162.5C 346.167,161.5 347.5,160.167 348.5,158.5C 350.891,156.106 353.557,154.106 356.5,152.5C 359.107,153.137 361.44,154.304 363.5,156C 389.103,181.821 414.77,207.654 440.5,233.5 Z"/></g>
<g><path style="opacity:0.015" fill="#fefffe" d="M 54.5,154.5 C 54.5,155.167 54.5,155.833 54.5,156.5C 53.8333,156.5 53.1667,156.5 52.5,156.5C 52.5,155.167 53.1667,154.5 54.5,154.5 Z"/></g>
<g><path style="opacity:1" fill="#e8aac1" d="M 255.5,155.5 C 255.5,155.833 255.5,156.167 255.5,156.5C 249.131,156.347 242.797,156.68 236.5,157.5C 236.5,157.167 236.5,156.833 236.5,156.5C 242.775,155.582 249.108,155.249 255.5,155.5 Z"/></g>
<g><path style="opacity:1" fill="#f8b697" d="M 255.5,156.5 C 255.5,156.167 255.5,155.833 255.5,155.5C 255.833,155.5 256.167,155.5 256.5,155.5C 258.167,155.5 259.833,155.5 261.5,155.5C 261.833,156.167 262.167,156.833 262.5,157.5C 260.236,156.781 257.903,156.448 255.5,156.5 Z"/></g>
<g><path style="opacity:1" fill="#fbfafa" d="M 255.5,156.5 C 257.903,156.448 260.236,156.781 262.5,157.5C 269.533,158.588 276.533,159.922 283.5,161.5C 283.5,162.167 283.833,162.5 284.5,162.5C 286.755,164.38 289.422,165.38 292.5,165.5C 293.167,166.167 293.833,166.833 294.5,167.5C 297.576,170.551 301.242,172.884 305.5,174.5C 310.152,177.821 314.485,181.487 318.5,185.5C 319.01,188.674 320.677,191.008 323.5,192.5C 327.07,195.837 329.737,199.837 331.5,204.5C 332.753,209.297 334.753,213.63 337.5,217.5C 337.527,219.199 338.194,220.533 339.5,221.5C 340.949,227.311 341.616,233.311 341.5,239.5C 341.5,246.167 341.5,252.833 341.5,259.5C 340.475,262.974 339.808,266.64 339.5,270.5C 339.039,274.212 338.373,277.879 337.5,281.5C 334.537,287.305 331.537,293.305 328.5,299.5C 325.542,301.403 323.542,304.07 322.5,307.5C 320.188,308.478 318.522,310.145 317.5,312.5C 315.5,313.833 313.833,315.5 312.5,317.5C 307.831,320.512 303.498,324.012 299.5,328C 291.139,331.693 282.805,335.359 274.5,339C 264.944,341.023 255.278,341.856 245.5,341.5C 245.167,341.5 244.833,341.5 244.5,341.5C 240.433,339.946 236.1,339.28 231.5,339.5C 229.265,339.795 227.265,339.461 225.5,338.5C 220.312,336.498 214.979,334.498 209.5,332.5C 207.054,331.312 204.72,329.979 202.5,328.5C 201.145,325.482 198.812,324.149 195.5,324.5C 192.048,321.269 188.381,318.269 184.5,315.5C 181.52,310.854 177.853,306.854 173.5,303.5C 172.877,301.289 171.877,299.289 170.5,297.5C 170.091,293.67 168.424,290.67 165.5,288.5C 164.611,285.23 163.277,282.23 161.5,279.5C 161.784,277.585 161.451,275.919 160.5,274.5C 159.735,271.904 159.401,269.237 159.5,266.5C 158.629,256.194 158.296,245.86 158.5,235.5C 159.025,229.229 160.359,223.229 162.5,217.5C 162.328,216.508 162.662,215.842 163.5,215.5C 165.611,212.937 166.944,209.937 167.5,206.5C 170.661,204.08 172.327,200.747 172.5,196.5C 173.167,196.5 173.5,196.167 173.5,195.5C 175.262,194.738 176.262,193.404 176.5,191.5C 177.882,189.451 179.548,187.785 181.5,186.5C 184.55,184.451 186.883,181.784 188.5,178.5C 189.5,177.833 190.5,177.167 191.5,176.5C 193.404,176.262 194.738,175.262 195.5,173.5C 196.71,173.068 197.71,172.401 198.5,171.5C 201.006,170.25 203.673,169.584 206.5,169.5C 206.5,168.5 206.5,167.5 206.5,166.5C 206.833,166.5 207.167,166.5 207.5,166.5C 213.122,164.526 218.455,162.193 223.5,159.5C 227.906,159.252 232.24,158.585 236.5,157.5C 242.797,156.68 249.131,156.347 255.5,156.5 Z"/></g>
<g><path style="opacity:1" fill="#f79a6c" d="M 261.5,155.5 C 267.564,156.367 273.564,157.534 279.5,159C 280.858,159.934 282.192,160.768 283.5,161.5C 276.533,159.922 269.533,158.588 262.5,157.5C 262.167,156.833 261.833,156.167 261.5,155.5 Z"/></g>
<g><path style="opacity:1" fill="#d6688f" d="M 236.5,156.5 C 236.5,156.833 236.5,157.167 236.5,157.5C 232.24,158.585 227.906,159.252 223.5,159.5C 222.391,159.557 221.391,159.89 220.5,160.5C 222.372,158.938 224.705,157.938 227.5,157.5C 230.428,156.516 233.428,156.183 236.5,156.5 Z"/></g>
<g><path style="opacity:1" fill="#e59db7" d="M 223.5,159.5 C 218.455,162.193 213.122,164.526 207.5,166.5C 211.103,163.202 215.436,161.202 220.5,160.5C 221.391,159.89 222.391,159.557 223.5,159.5 Z"/></g>
<g><path style="opacity:0.086" fill="#e6dbeb" d="M 52.5,156.5 C 53.1667,156.5 53.8333,156.5 54.5,156.5C 53.8333,157.833 53.1667,159.167 52.5,160.5C 50.0038,161.58 47.6705,162.914 45.5,164.5C 46.9107,161.003 49.244,158.336 52.5,156.5 Z"/></g>
<g><path style="opacity:1" fill="#f79f73" d="M 284.5,162.5 C 287.626,162.485 290.293,163.485 292.5,165.5C 289.422,165.38 286.755,164.38 284.5,162.5 Z"/></g>
<g><path style="opacity:1" fill="#f7973a" d="M 344.5,162.5 C 341.833,165.833 338.833,168.833 335.5,171.5C 337.5,167.5 340.5,164.5 344.5,162.5 Z"/></g>
<g><path style="opacity:0.235" fill="#a98bc0" d="M 45.5,166.5 C 45.5,167.833 44.8333,168.5 43.5,168.5C 43.5,167.167 44.1667,166.5 45.5,166.5 Z"/></g>
<g><path style="opacity:1" fill="#d97297" d="M 254.5,166.5 C 254.833,166.5 255.167,166.5 255.5,166.5C 255.5,166.833 255.5,167.167 255.5,167.5C 246.71,167.257 238.044,167.924 229.5,169.5C 237.457,166.825 245.79,165.825 254.5,166.5 Z"/></g>
<g><path style="opacity:1" fill="#b63979" d="M 174.5,165.5 C 178.472,167.472 181.472,170.472 183.5,174.5C 180.215,171.882 177.215,168.882 174.5,165.5 Z"/></g>
<g><path style="opacity:1" fill="#f5dbe5" d="M 254.5,166.5 C 245.79,165.825 237.457,166.825 229.5,169.5C 226.782,170.043 224.115,170.709 221.5,171.5C 222.678,170.001 224.345,169.001 226.5,168.5C 235.813,165.54 245.146,164.874 254.5,166.5 Z"/></g>
<g><path style="opacity:1" fill="#c3265f" d="M 255.5,167.5 C 255.5,170.833 255.5,174.167 255.5,177.5C 250.821,177.334 246.155,177.501 241.5,178C 240.944,178.383 240.611,178.883 240.5,179.5C 236.681,179.414 233.015,180.081 229.5,181.5C 224.347,181.496 220.014,183.163 216.5,186.5C 214.537,187.82 212.537,189.154 210.5,190.5C 208.167,191.833 205.833,193.167 203.5,194.5C 200.781,192.781 198.781,190.447 197.5,187.5C 197.5,186.833 197.5,186.167 197.5,185.5C 200.089,184.581 202.089,182.914 203.5,180.5C 205.751,179.589 207.751,178.256 209.5,176.5C 215.74,174.446 222.073,172.613 228.5,171C 229.056,170.617 229.389,170.117 229.5,169.5C 238.044,167.924 246.71,167.257 255.5,167.5 Z"/></g>
<g><path style="opacity:1" fill="#f0c4d4" d="M 206.5,166.5 C 206.5,167.5 206.5,168.5 206.5,169.5C 203.673,169.584 201.006,170.25 198.5,171.5C 200.822,169.336 203.489,167.669 206.5,166.5 Z"/></g>
<g><path style="opacity:1" fill="#fcd5c2" d="M 294.5,167.5 C 298.678,169.086 302.345,171.419 305.5,174.5C 301.242,172.884 297.576,170.551 294.5,167.5 Z"/></g>
<g><path style="opacity:1" fill="#f26d2c" d="M 255.5,167.5 C 264.43,168.15 273.097,169.816 281.5,172.5C 288.594,176.554 295.594,180.887 302.5,185.5C 304.833,188.167 307.167,190.833 309.5,193.5C 308.558,197.438 306.225,200.105 302.5,201.5C 295.347,194.505 287.347,188.671 278.5,184C 273.704,182.197 268.704,181.031 263.5,180.5C 263.167,180.5 262.833,180.5 262.5,180.5C 260.285,179.732 257.952,179.065 255.5,178.5C 255.5,178.167 255.5,177.833 255.5,177.5C 255.5,174.167 255.5,170.833 255.5,167.5 Z"/></g>
<g><path style="opacity:0.871" fill="#7a4da1" d="M 52.5,160.5 C 52.719,161.675 52.3857,162.675 51.5,163.5C 48.1424,165.879 45.4758,168.879 43.5,172.5C 40.5054,174.826 37.5054,177.16 34.5,179.5C 34.5,178.833 34.5,178.167 34.5,177.5C 36.5,176.833 37.8333,175.5 38.5,173.5C 40.0516,171.658 41.7182,169.991 43.5,168.5C 44.8333,168.5 45.5,167.833 45.5,166.5C 45.5,165.833 45.5,165.167 45.5,164.5C 47.6705,162.914 50.0038,161.58 52.5,160.5 Z"/></g>
<g><path style="opacity:1" fill="#dc7c9e" d="M 229.5,169.5 C 229.389,170.117 229.056,170.617 228.5,171C 222.073,172.613 215.74,174.446 209.5,176.5C 213.164,174.095 217.164,172.429 221.5,171.5C 224.115,170.709 226.782,170.043 229.5,169.5 Z"/></g>
<g><path style="opacity:1" fill="#fcd2bd" d="M 255.5,167.5 C 255.5,167.167 255.5,166.833 255.5,166.5C 264.884,166.139 273.551,168.139 281.5,172.5C 273.097,169.816 264.43,168.15 255.5,167.5 Z"/></g>
<g><path style="opacity:0.098" fill="#dcd2e6" d="M 45.5,164.5 C 45.5,165.167 45.5,165.833 45.5,166.5C 44.1667,166.5 43.5,167.167 43.5,168.5C 41.7182,169.991 40.0516,171.658 38.5,173.5C 36.9382,173.733 35.6049,174.4 34.5,175.5C 37.1391,170.861 40.8058,167.194 45.5,164.5 Z"/></g>
<g><path style="opacity:1" fill="#e59eb8" d="M 195.5,173.5 C 194.738,175.262 193.404,176.262 191.5,176.5C 192.262,174.738 193.596,173.738 195.5,173.5 Z"/></g>
<g><path style="opacity:0.063" fill="#f0e1f7" d="M 34.5,175.5 C 34.5,176.167 34.5,176.833 34.5,177.5C 33.8333,177.5 33.1667,177.5 32.5,177.5C 32.5,176.167 33.1667,175.5 34.5,175.5 Z"/></g>
<g><path style="opacity:0.408" fill="#a689c1" d="M 38.5,173.5 C 37.8333,175.5 36.5,176.833 34.5,177.5C 34.5,176.833 34.5,176.167 34.5,175.5C 35.6049,174.4 36.9382,173.733 38.5,173.5 Z"/></g>
<g><path style="opacity:0.227" fill="#aa8cc4" d="M 32.5,177.5 C 33.1667,177.5 33.8333,177.5 34.5,177.5C 34.5,178.167 34.5,178.833 34.5,179.5C 33.8333,179.5 33.1667,179.5 32.5,179.5C 32.5,178.833 32.5,178.167 32.5,177.5 Z"/></g>
<g><path style="opacity:1" fill="#d97398" d="M 255.5,177.5 C 255.5,177.833 255.5,178.167 255.5,178.5C 250.463,178.413 245.463,178.746 240.5,179.5C 240.611,178.883 240.944,178.383 241.5,178C 246.155,177.501 250.821,177.334 255.5,177.5 Z"/></g>
<g><path style="opacity:1" fill="#f2cdd5" d="M 255.5,178.5 C 257.952,179.065 260.285,179.732 262.5,180.5C 251.363,179.985 240.363,180.652 229.5,182.5C 229.5,182.167 229.5,181.833 229.5,181.5C 233.015,180.081 236.681,179.414 240.5,179.5C 245.463,178.746 250.463,178.413 255.5,178.5 Z"/></g>
<g><path style="opacity:1" fill="#dddbdb" d="M 262.5,180.5 C 262.833,180.5 263.167,180.5 263.5,180.5C 267.924,182.17 272.59,183.67 277.5,185C 276.833,185.333 276.167,185.667 275.5,186C 276.737,186.232 277.737,186.732 278.5,187.5C 277.833,187.5 277.167,187.5 276.5,187.5C 275.833,187.5 275.167,187.5 274.5,187.5C 272.22,185.777 269.553,185.111 266.5,185.5C 266.389,184.883 266.056,184.383 265.5,184C 262.635,183.817 259.969,183.317 257.5,182.5C 251.681,181.347 245.681,181.181 239.5,182C 238.584,182.278 237.918,182.778 237.5,183.5C 236.833,183.5 236.167,183.5 235.5,183.5C 233.409,183.318 231.409,183.652 229.5,184.5C 228.702,184.043 228.369,183.376 228.5,182.5C 228.833,182.5 229.167,182.5 229.5,182.5C 240.363,180.652 251.363,179.985 262.5,180.5 Z"/></g>
<g><path style="opacity:1" fill="#8b8b8b" d="M 257.5,182.5 C 252.968,182.182 248.634,182.515 244.5,183.5C 242.167,183.5 239.833,183.5 237.5,183.5C 237.918,182.778 238.584,182.278 239.5,182C 245.681,181.181 251.681,181.347 257.5,182.5 Z"/></g>
<g><path style="opacity:0.988" fill="#f8a240" d="M 448.5,109.5 C 448.833,109.5 449.167,109.5 449.5,109.5C 450.167,111.5 450.833,113.5 451.5,115.5C 452.828,157.846 452.828,200.179 451.5,242.5C 451.167,242.5 450.833,242.5 450.5,242.5C 451.124,198.076 450.457,153.743 448.5,109.5 Z"/></g>
<g><path style="opacity:0.114" fill="#e1d6e8" d="M 32.5,177.5 C 32.5,178.167 32.5,178.833 32.5,179.5C 30.5675,182.144 27.9008,183.81 24.5,184.5C 26.368,181.236 29.0347,178.902 32.5,177.5 Z"/></g>
<g><path style="opacity:1" fill="#c298c8" d="M 186.5,178.5 C 187.167,178.5 187.833,178.5 188.5,178.5C 186.883,181.784 184.55,184.451 181.5,186.5C 183.167,183.833 184.833,181.167 186.5,178.5 Z"/></g>
<g><path style="opacity:1" fill="#f69339" d="M 333.5,173.5 C 329.554,178.113 325.221,182.446 320.5,186.5C 319.833,186.5 319.5,186.167 319.5,185.5C 323.151,182.817 325.818,179.483 327.5,175.5C 329.685,175.296 331.685,174.63 333.5,173.5 Z"/></g>
<g><path style="opacity:1" fill="#bfb1b6" d="M 228.5,182.5 C 228.369,183.376 228.702,184.043 229.5,184.5C 231.409,183.652 233.409,183.318 235.5,183.5C 231.534,184.703 227.534,186.036 223.5,187.5C 226.021,184.678 225.354,184.011 221.5,185.5C 223.282,183.643 225.615,182.643 228.5,182.5 Z"/></g>
<g><path style="opacity:1" fill="#3a3a3a" d="M 244.5,183.5 C 248.634,182.515 252.968,182.182 257.5,182.5C 259.969,183.317 262.635,183.817 265.5,184C 266.056,184.383 266.389,184.883 266.5,185.5C 259.235,184.307 251.901,183.64 244.5,183.5 Z"/></g>
<g><path style="opacity:1" fill="#df88a7" d="M 203.5,180.5 C 202.089,182.914 200.089,184.581 197.5,185.5C 198.911,183.086 200.911,181.419 203.5,180.5 Z"/></g>
<g><path style="opacity:1" fill="#d4648c" d="M 229.5,181.5 C 229.5,181.833 229.5,182.167 229.5,182.5C 229.167,182.5 228.833,182.5 228.5,182.5C 225.615,182.643 223.282,183.643 221.5,185.5C 219.708,185.366 218.042,185.699 216.5,186.5C 220.014,183.163 224.347,181.496 229.5,181.5 Z"/></g>
<g><path style="opacity:1" fill="#020202" d="M 235.5,183.5 C 236.167,183.5 236.833,183.5 237.5,183.5C 239.833,183.5 242.167,183.5 244.5,183.5C 251.901,183.64 259.235,184.307 266.5,185.5C 268.905,186.768 271.572,187.435 274.5,187.5C 275.167,187.5 275.833,187.5 276.5,187.5C 278.623,189.797 281.29,191.13 284.5,191.5C 287.943,194.729 291.61,197.729 295.5,200.5C 296.073,203.407 297.739,205.407 300.5,206.5C 302.139,208.806 304.139,210.806 306.5,212.5C 306.5,213.167 306.5,213.833 306.5,214.5C 308.322,218.662 310.322,222.662 312.5,226.5C 313.451,227.919 313.784,229.585 313.5,231.5C 313.259,233.898 313.926,235.898 315.5,237.5C 315.5,238.167 315.5,238.833 315.5,239.5C 315.5,246.833 315.5,254.167 315.5,261.5C 314.076,263.515 313.41,265.848 313.5,268.5C 312.232,273.117 310.232,277.451 307.5,281.5C 307.5,281.833 307.5,282.167 307.5,282.5C 305.952,282.821 305.285,283.821 305.5,285.5C 305.167,285.5 304.833,285.5 304.5,285.5C 302.782,287.223 301.449,289.223 300.5,291.5C 299.85,291.804 299.183,292.137 298.5,292.5C 297.83,290.709 297.163,289.042 296.5,287.5C 295.145,284.145 292.811,281.811 289.5,280.5C 288.833,279.833 288.167,279.167 287.5,278.5C 284.36,277.359 281.027,277.192 277.5,278C 276.944,278.383 276.611,278.883 276.5,279.5C 274.5,280.167 273.167,281.5 272.5,283.5C 271.167,283.5 270.5,284.167 270.5,285.5C 269.883,285.611 269.383,285.944 269,286.5C 268.192,290.027 268.359,293.36 269.5,296.5C 269.755,298.967 270.755,300.967 272.5,302.5C 273.962,303.458 275.295,304.624 276.5,306C 278.167,306.333 279.833,306.667 281.5,307C 278.588,308.232 275.922,309.732 273.5,311.5C 273.167,311.5 272.833,311.5 272.5,311.5C 269.426,311.873 266.426,312.539 263.5,313.5C 252.032,315.075 240.698,314.408 229.5,311.5C 228.5,311.5 227.5,311.5 226.5,311.5C 223.394,308.544 219.727,306.544 215.5,305.5C 214.833,305.5 214.5,305.167 214.5,304.5C 212.879,302.058 210.546,300.725 207.5,300.5C 204.167,296.5 200.5,292.833 196.5,289.5C 194.654,285.131 192.321,281.131 189.5,277.5C 189.88,275.302 189.213,273.635 187.5,272.5C 186.25,269.994 185.584,267.327 185.5,264.5C 184.322,254.821 184.322,245.154 185.5,235.5C 185.5,234.167 185.5,232.833 185.5,231.5C 186.117,231.389 186.617,231.056 187,230.5C 187.401,227.301 188.234,224.301 189.5,221.5C 190.778,221.782 191.778,222.449 192.5,223.5C 192.338,225.527 192.505,227.527 193,229.5C 193.86,232.084 195.027,234.417 196.5,236.5C 196.427,238.027 197.094,239.027 198.5,239.5C 200.239,242.243 202.573,244.243 205.5,245.5C 205.842,246.338 206.508,246.672 207.5,246.5C 208.635,248.213 210.302,248.88 212.5,248.5C 212.611,249.117 212.944,249.617 213.5,250C 218.352,250.815 223.019,250.648 227.5,249.5C 231.197,248.949 234.697,247.615 238,245.5C 239.749,244.59 240.916,243.257 241.5,241.5C 243.144,241.19 244.144,240.19 244.5,238.5C 246.213,235.706 247.546,232.706 248.5,229.5C 250.047,227.193 250.713,224.527 250.5,221.5C 250.333,219.5 250.167,217.5 250,215.5C 249.617,214.944 249.117,214.611 248.5,214.5C 248.737,213.209 248.404,212.209 247.5,211.5C 247.139,207.778 245.472,204.778 242.5,202.5C 242.167,201.5 241.5,200.833 240.5,200.5C 238.41,198.61 236.077,196.943 233.5,195.5C 232.311,194.571 230.978,194.238 229.5,194.5C 229.082,193.778 228.416,193.278 227.5,193C 223.312,192.824 219.312,192.324 215.5,191.5C 218.101,190.199 220.768,188.866 223.5,187.5C 227.534,186.036 231.534,184.703 235.5,183.5 Z"/></g>
<g><path style="opacity:1" fill="#fbcbb1" d="M 302.5,185.5 C 306.833,187.833 310.167,191.167 312.5,195.5C 312.167,195.5 311.833,195.5 311.5,195.5C 311.167,194.5 310.5,193.833 309.5,193.5C 307.167,190.833 304.833,188.167 302.5,185.5 Z"/></g>
<g><path style="opacity:1" fill="#3c3c3c" d="M 266.5,185.5 C 269.553,185.111 272.22,185.777 274.5,187.5C 271.572,187.435 268.905,186.768 266.5,185.5 Z"/></g>
<g><path style="opacity:0.408" fill="#a382bd" d="M 32.5,179.5 C 32.2779,181.607 31.2779,183.274 29.5,184.5C 27.1748,185.518 25.1748,186.851 23.5,188.5C 23.8333,187.167 24.1667,185.833 24.5,184.5C 27.9008,183.81 30.5675,182.144 32.5,179.5 Z"/></g>
<g><path style="opacity:1" fill="#ae66a7" d="M 197.5,185.5 C 197.5,186.167 197.5,186.833 197.5,187.5C 196.151,188.953 194.485,189.953 192.5,190.5C 193.478,188.188 195.145,186.522 197.5,185.5 Z"/></g>
<g><path style="opacity:1" fill="#757575" d="M 276.5,187.5 C 277.167,187.5 277.833,187.5 278.5,187.5C 280.5,188.833 282.5,190.167 284.5,191.5C 281.29,191.13 278.623,189.797 276.5,187.5 Z"/></g>
<g><path style="opacity:0.424" fill="#ab8ec3" d="M 23.5,188.5 C 23.5,189.833 22.8333,190.5 21.5,190.5C 21.5,189.167 22.1667,188.5 23.5,188.5 Z"/></g>
<g><path style="opacity:1" fill="#823394" d="M 197.5,187.5 C 198.781,190.447 200.781,192.781 203.5,194.5C 203.5,195.167 203.5,195.833 203.5,196.5C 201.246,197.124 199.579,198.457 198.5,200.5C 196.793,201.873 195.46,203.539 194.5,205.5C 192.799,206.211 191.799,207.545 191.5,209.5C 185.979,216.548 182.646,224.548 181.5,233.5C 179.598,236.337 178.931,239.671 179.5,243.5C 176.167,243.5 172.833,243.5 169.5,243.5C 169.437,238.797 169.771,234.13 170.5,229.5C 170.693,226.692 171.36,224.025 172.5,221.5C 174.113,219.539 175.113,217.206 175.5,214.5C 177.294,212.572 178.294,210.238 178.5,207.5C 180.192,205.795 181.525,203.795 182.5,201.5C 185.917,199.088 188.584,196.088 190.5,192.5C 190.5,191.167 191.167,190.5 192.5,190.5C 194.485,189.953 196.151,188.953 197.5,187.5 Z"/></g>
<g><path style="opacity:1" fill="#ffe8b0" d="M 318.5,185.5 C 318.833,185.5 319.167,185.5 319.5,185.5C 319.5,186.167 319.833,186.5 320.5,186.5C 321.5,188.5 322.5,190.5 323.5,192.5C 320.677,191.008 319.01,188.674 318.5,185.5 Z"/></g>
<g><path style="opacity:1" fill="#b789c1" d="M 176.5,191.5 C 176.262,193.404 175.262,194.738 173.5,195.5C 173.738,193.596 174.738,192.262 176.5,191.5 Z"/></g>
<g><path style="opacity:1" fill="#848484" d="M 215.5,191.5 C 219.312,192.324 223.312,192.824 227.5,193C 228.416,193.278 229.082,193.778 229.5,194.5C 227.097,194.552 224.764,194.219 222.5,193.5C 221.5,193.5 220.5,193.5 219.5,193.5C 217.738,193.357 216.071,193.691 214.5,194.5C 213.335,193.14 213.668,192.14 215.5,191.5 Z"/></g>
<g><path style="opacity:0.09" fill="#e2d8ea" d="M 24.5,184.5 C 24.1667,185.833 23.8333,187.167 23.5,188.5C 22.1667,188.5 21.5,189.167 21.5,190.5C 21.5,191.833 20.8333,192.5 19.5,192.5C 17.6127,193.656 16.2794,195.323 15.5,197.5C 12.8872,198.733 11.2206,200.733 10.5,203.5C 10.2978,201.011 10.7978,198.677 12,196.5C 16.2953,192.608 20.4619,188.608 24.5,184.5 Z"/></g>
<g><path style="opacity:1" fill="#fcfcfc" d="M 210.5,191.5 C 212.176,192.183 212.843,193.517 212.5,195.5C 215.388,196.01 217.721,195.344 219.5,193.5C 220.5,193.5 221.5,193.5 222.5,193.5C 228.344,195.736 234.344,198.07 240.5,200.5C 241.5,200.833 242.167,201.5 242.5,202.5C 243.414,206.001 245.081,209.001 247.5,211.5C 248.404,212.209 248.737,213.209 248.5,214.5C 249.833,219.5 249.833,224.5 248.5,229.5C 247.546,232.706 246.213,235.706 244.5,238.5C 242.856,238.81 241.856,239.81 241.5,241.5C 230.998,248.065 219.664,249.732 207.5,246.5C 206.508,246.672 205.842,246.338 205.5,245.5C 203.125,242.131 200.458,239.131 197.5,236.5C 197.167,236.5 196.833,236.5 196.5,236.5C 194.259,229.621 192.925,222.621 192.5,215.5C 192.082,214.778 191.416,214.278 190.5,214C 191.38,212.644 191.714,211.144 191.5,209.5C 193.201,208.789 194.201,207.455 194.5,205.5C 196.935,204.73 198.269,203.063 198.5,200.5C 199.579,198.457 201.246,197.124 203.5,196.5C 206.112,195.221 208.445,193.555 210.5,191.5 Z"/></g>
<g><path style="opacity:1" fill="#e5aac3" d="M 210.5,190.5 C 210.5,190.833 210.5,191.167 210.5,191.5C 208.445,193.555 206.112,195.221 203.5,196.5C 203.5,195.833 203.5,195.167 203.5,194.5C 205.833,193.167 208.167,191.833 210.5,190.5 Z"/></g>
<g><path style="opacity:1" fill="#e7dfe2" d="M 223.5,187.5 C 220.768,188.866 218.101,190.199 215.5,191.5C 213.668,192.14 213.335,193.14 214.5,194.5C 216.071,193.691 217.738,193.357 219.5,193.5C 217.721,195.344 215.388,196.01 212.5,195.5C 212.843,193.517 212.176,192.183 210.5,191.5C 210.5,191.167 210.5,190.833 210.5,190.5C 212.537,189.154 214.537,187.82 216.5,186.5C 218.042,185.699 219.708,185.366 221.5,185.5C 225.354,184.011 226.021,184.678 223.5,187.5 Z"/></g>
<g><path style="opacity:0.651" fill="#946fb2" d="M 19.5,192.5 C 19.2687,195.063 17.9354,196.73 15.5,197.5C 16.2794,195.323 17.6127,193.656 19.5,192.5 Z"/></g>
<g><path style="opacity:1" fill="#b17fbc" d="M 190.5,192.5 C 188.584,196.088 185.917,199.088 182.5,201.5C 184.482,197.854 187.149,194.854 190.5,192.5 Z"/></g>
<g><path style="opacity:1" fill="#f89b3c" d="M 309.5,193.5 C 310.5,193.833 311.167,194.5 311.5,195.5C 309.452,198.215 307.118,200.548 304.5,202.5C 303.508,202.672 302.842,202.338 302.5,201.5C 306.225,200.105 308.558,197.438 309.5,193.5 Z"/></g>
<g><path style="opacity:1" fill="#fec820" d="M 311.5,195.5 C 311.833,195.5 312.167,195.5 312.5,195.5C 314.868,198.211 316.868,201.211 318.5,204.5C 319.814,209.132 322.147,213.132 325.5,216.5C 326.167,216.5 326.5,216.833 326.5,217.5C 327.306,221.525 328.472,225.525 330,229.5C 330.435,234.184 330.935,238.851 331.5,243.5C 327.833,243.5 324.167,243.5 320.5,243.5C 320.5,242.833 320.167,242.5 319.5,242.5C 319.806,239.615 319.473,236.948 318.5,234.5C 318.59,231.848 317.924,229.515 316.5,227.5C 314.641,222.085 312.474,216.752 310,211.5C 308.951,209.382 307.451,207.716 305.5,206.5C 304.766,205.292 304.433,203.959 304.5,202.5C 307.118,200.548 309.452,198.215 311.5,195.5 Z"/></g>
<g><path style="opacity:1" fill="#c9c9c9" d="M 222.5,193.5 C 224.764,194.219 227.097,194.552 229.5,194.5C 230.978,194.238 232.311,194.571 233.5,195.5C 236.077,196.943 238.41,198.61 240.5,200.5C 234.344,198.07 228.344,195.736 222.5,193.5 Z"/></g>
<g><path style="opacity:1" fill="#e6d9d1" d="M 263.5,180.5 C 268.704,181.031 273.704,182.197 278.5,184C 287.347,188.671 295.347,194.505 302.5,201.5C 302.842,202.338 303.508,202.672 304.5,202.5C 304.433,203.959 304.766,205.292 305.5,206.5C 305.517,208.565 305.85,210.565 306.5,212.5C 304.139,210.806 302.139,208.806 300.5,206.5C 299.581,203.911 297.914,201.911 295.5,200.5C 291.61,197.729 287.943,194.729 284.5,191.5C 282.5,190.167 280.5,188.833 278.5,187.5C 277.737,186.732 276.737,186.232 275.5,186C 276.167,185.667 276.833,185.333 277.5,185C 272.59,183.67 267.924,182.17 263.5,180.5 Z"/></g>
<g><path style="opacity:1" fill="#e1cee5" d="M 172.5,196.5 C 172.327,200.747 170.661,204.08 167.5,206.5C 169.174,203.128 170.841,199.795 172.5,196.5 Z"/></g>
<g><path style="opacity:1" fill="#cdadd4" d="M 198.5,200.5 C 198.269,203.063 196.935,204.73 194.5,205.5C 195.46,203.539 196.793,201.873 198.5,200.5 Z"/></g>
<g><path style="opacity:1" fill="#3b3b3b" d="M 295.5,200.5 C 297.914,201.911 299.581,203.911 300.5,206.5C 297.739,205.407 296.073,203.407 295.5,200.5 Z"/></g>
<g><path style="opacity:1" fill="#9d9d9d" d="M 242.5,202.5 C 245.472,204.778 247.139,207.778 247.5,211.5C 245.081,209.001 243.414,206.001 242.5,202.5 Z"/></g>
<g><path style="opacity:1" fill="#c49fcd" d="M 194.5,205.5 C 194.201,207.455 193.201,208.789 191.5,209.5C 191.799,207.545 192.799,206.211 194.5,205.5 Z"/></g>
<g><path style="opacity:1" fill="#d8bfde" d="M 167.5,206.5 C 166.944,209.937 165.611,212.937 163.5,215.5C 164.06,213.199 164.56,210.866 165,208.5C 165.708,207.619 166.542,206.953 167.5,206.5 Z"/></g>
<g><path style="opacity:1" fill="#ffebae" d="M 331.5,204.5 C 334.351,208.378 336.351,212.712 337.5,217.5C 334.753,213.63 332.753,209.297 331.5,204.5 Z"/></g>
<g><path style="opacity:1" fill="#ffd558" d="M 318.5,204.5 C 319.458,204.953 320.292,205.619 321,206.5C 322.798,209.758 324.298,213.091 325.5,216.5C 322.147,213.132 319.814,209.132 318.5,204.5 Z"/></g>
<g><path style="opacity:1" fill="#ba8ec4" d="M 178.5,207.5 C 178.294,210.238 177.294,212.572 175.5,214.5C 175.706,211.762 176.706,209.428 178.5,207.5 Z"/></g>
<g><path style="opacity:0.294" fill="#b299c9" d="M 10.5,211.5 C 12.0879,213.113 13.0879,215.113 13.5,217.5C 12.0221,216.552 11.0221,215.219 10.5,213.5C 10.5,212.833 10.5,212.167 10.5,211.5 Z"/></g>
<g><path style="opacity:0.97" fill="#7b4ea1" d="M 15.5,197.5 C 12.8274,203.011 12.3274,208.678 14,214.5C 17.4989,217.413 19.9989,221.08 21.5,225.5C 20.8333,225.5 20.1667,225.5 19.5,225.5C 17.493,222.828 15.493,220.161 13.5,217.5C 13.0879,215.113 12.0879,213.113 10.5,211.5C 10.5,208.833 10.5,206.167 10.5,203.5C 11.2206,200.733 12.8872,198.733 15.5,197.5 Z"/></g>
<g><path style="opacity:1" fill="#dbd2dd" d="M 191.5,209.5 C 191.714,211.144 191.38,212.644 190.5,214C 191.416,214.278 192.082,214.778 192.5,215.5C 191.115,216.574 189.949,217.907 189,219.5C 187.136,223.263 185.969,227.263 185.5,231.5C 185.5,232.833 185.5,234.167 185.5,235.5C 183.537,242.424 182.87,249.757 183.5,257.5C 182.673,252.015 182.173,246.348 182,240.5C 181.617,241.056 181.117,241.389 180.5,241.5C 180.401,238.763 180.735,236.096 181.5,233.5C 182.646,224.548 185.979,216.548 191.5,209.5 Z"/></g>
<g><path style="opacity:1" fill="#6f6f6f" d="M 306.5,214.5 C 309.812,217.722 311.812,221.722 312.5,226.5C 310.322,222.662 308.322,218.662 306.5,214.5 Z"/></g>
<g><path style="opacity:1" fill="#676767" d="M 248.5,214.5 C 249.117,214.611 249.617,214.944 250,215.5C 250.167,217.5 250.333,219.5 250.5,221.5C 250.713,224.527 250.047,227.193 248.5,229.5C 249.833,224.5 249.833,219.5 248.5,214.5 Z"/></g>
<g><path style="opacity:0.027" fill="#f3f0f6" d="M 10.5,213.5 C 11.0221,215.219 12.0221,216.552 13.5,217.5C 15.493,220.161 17.493,222.828 19.5,225.5C 20.0347,227.446 21.368,228.446 23.5,228.5C 23.5394,229.583 23.8728,230.583 24.5,231.5C 26.8371,232.517 28.5037,234.184 29.5,236.5C 30.4168,237.127 31.4168,237.461 32.5,237.5C 33.8333,237.5 34.5,238.167 34.5,239.5C 35.8333,239.5 36.5,240.167 36.5,241.5C 37.8333,241.5 38.5,242.167 38.5,243.5C 38.8333,244.833 39.1667,246.167 39.5,247.5C 30.5664,240.404 22.0664,232.737 14,224.5C 11.1457,221.386 9.97902,217.719 10.5,213.5 Z"/></g>
<g><path style="opacity:1" fill="#b687c0" d="M 175.5,214.5 C 175.113,217.206 174.113,219.539 172.5,221.5C 172.557,220.391 172.89,219.391 173.5,218.5C 173.157,216.517 173.824,215.183 175.5,214.5 Z"/></g>
<g><path style="opacity:1" fill="#e4d3e8" d="M 173.5,218.5 C 172.89,219.391 172.557,220.391 172.5,221.5C 171.36,224.025 170.693,226.692 170.5,229.5C 170.167,229.5 169.833,229.5 169.5,229.5C 169.502,225.173 170.835,221.507 173.5,218.5 Z"/></g>
<g><path style="opacity:1" fill="#986eb2" d="M 162.5,217.5 C 160.359,223.229 159.025,229.229 158.5,235.5C 157.506,245.653 157.172,255.986 157.5,266.5C 156.513,261.695 156.179,256.695 156.5,251.5C 156.5,248.833 156.5,246.167 156.5,243.5C 156.5,243.167 156.5,242.833 156.5,242.5C 156.868,235.753 157.868,229.087 159.5,222.5C 160.001,220.345 161.001,218.678 162.5,217.5 Z"/></g>
<g><path style="opacity:0.204" fill="#c7b6d6" d="M 19.5,225.5 C 20.1667,225.5 20.8333,225.5 21.5,225.5C 22.5511,226.222 23.2178,227.222 23.5,228.5C 21.368,228.446 20.0347,227.446 19.5,225.5 Z"/></g>
<g><path style="opacity:1" fill="#fff0c3" d="M 326.5,217.5 C 331.028,225.342 333.028,234.008 332.5,243.5C 332.167,243.5 331.833,243.5 331.5,243.5C 330.935,238.851 330.435,234.184 330,229.5C 328.472,225.525 327.306,221.525 326.5,217.5 Z"/></g>
<g><path style="opacity:1" fill="#ffd75c" d="M 339.5,221.5 C 342.1,228.127 343.433,235.127 343.5,242.5C 342.833,241.5 342.167,240.5 341.5,239.5C 341.616,233.311 340.949,227.311 339.5,221.5 Z"/></g>
<g><path style="opacity:1" fill="#8e8e8e" d="M 192.5,215.5 C 192.925,222.621 194.259,229.621 196.5,236.5C 195.027,234.417 193.86,232.084 193,229.5C 192.505,227.527 192.338,225.527 192.5,223.5C 193.086,217.004 192.086,216.337 189.5,221.5C 188.234,224.301 187.401,227.301 187,230.5C 186.617,231.056 186.117,231.389 185.5,231.5C 185.969,227.263 187.136,223.263 189,219.5C 189.949,217.907 191.115,216.574 192.5,215.5 Z"/></g>
<g><path style="opacity:1" fill="#5b5b5b" d="M 192.5,223.5 C 191.778,222.449 190.778,221.782 189.5,221.5C 192.086,216.337 193.086,217.004 192.5,223.5 Z"/></g>
<g><path style="opacity:0.715" fill="#fac384" d="M 451.5,115.5 C 452.833,136.156 453.5,157.156 453.5,178.5C 453.333,199.5 453.167,220.5 453,241.5C 452.617,242.056 452.117,242.389 451.5,242.5C 452.828,200.179 452.828,157.846 451.5,115.5 Z"/></g>
<g><path style="opacity:0.243" fill="#bfa9d2" d="M 23.5,228.5 C 27.5,230.5 30.5,233.5 32.5,237.5C 31.4168,237.461 30.4168,237.127 29.5,236.5C 28.5037,234.184 26.8371,232.517 24.5,231.5C 23.8728,230.583 23.5394,229.583 23.5,228.5 Z"/></g>
<g><path style="opacity:1" fill="#ffebae" d="M 316.5,227.5 C 317.924,229.515 318.59,231.848 318.5,234.5C 317.076,232.485 316.41,230.152 316.5,227.5 Z"/></g>
<g><path style="opacity:1" fill="#fcbf3e" d="M 440.5,233.5 C 443.833,236.5 447.167,239.5 450.5,242.5C 450.833,242.5 451.167,242.5 451.5,242.5C 451.782,243.778 452.449,244.778 453.5,245.5C 453.5,245.833 453.5,246.167 453.5,246.5C 452.609,245.89 451.609,245.557 450.5,245.5C 446.797,241.798 443.463,237.798 440.5,233.5 Z"/></g>
<g><path style="opacity:1" fill="#606060" d="M 313.5,231.5 C 315.074,233.102 315.741,235.102 315.5,237.5C 313.926,235.898 313.259,233.898 313.5,231.5 Z"/></g>
<g><path style="opacity:1" fill="#777777" d="M 196.5,236.5 C 196.833,236.5 197.167,236.5 197.5,236.5C 198.11,237.391 198.443,238.391 198.5,239.5C 197.094,239.027 196.427,238.027 196.5,236.5 Z"/></g>
<g><path style="opacity:0.4" fill="#b9a2cd" d="M 32.5,237.5 C 33.8333,237.5 34.5,238.167 34.5,239.5C 33.1667,239.5 32.5,238.833 32.5,237.5 Z"/></g>
<g><path style="opacity:1" fill="#c9c9c9" d="M 197.5,236.5 C 200.458,239.131 203.125,242.131 205.5,245.5C 202.573,244.243 200.239,242.243 198.5,239.5C 198.443,238.391 198.11,237.391 197.5,236.5 Z"/></g>
<g><path style="opacity:0.384" fill="#b69cca" d="M 34.5,239.5 C 35.8333,239.5 36.5,240.167 36.5,241.5C 35.1667,241.5 34.5,240.833 34.5,239.5 Z"/></g>
<g><path style="opacity:1" fill="#bc9ccb" d="M 181.5,233.5 C 180.735,236.096 180.401,238.763 180.5,241.5C 180.5,246.5 180.5,251.5 180.5,256.5C 180.167,256.5 179.833,256.5 179.5,256.5C 179.5,255.833 179.5,255.167 179.5,254.5C 179.5,250.833 179.5,247.167 179.5,243.5C 178.931,239.671 179.598,236.337 181.5,233.5 Z"/></g>
<g><path style="opacity:1" fill="#767676" d="M 244.5,238.5 C 244.144,240.19 243.144,241.19 241.5,241.5C 241.856,239.81 242.856,238.81 244.5,238.5 Z"/></g>
<g><path style="opacity:1" fill="#f8f7f8" d="M 183.5,257.5 C 183.5,258.167 183.5,258.833 183.5,259.5C 183.663,261.857 183.497,264.19 183,266.5C 182.61,263.896 181.776,261.562 180.5,259.5C 180.5,258.5 180.5,257.5 180.5,256.5C 180.5,251.5 180.5,246.5 180.5,241.5C 181.117,241.389 181.617,241.056 182,240.5C 182.173,246.348 182.673,252.015 183.5,257.5 Z"/></g>
<g><path style="opacity:0.38" fill="#b69dcc" d="M 36.5,241.5 C 37.8333,241.5 38.5,242.167 38.5,243.5C 37.1667,243.5 36.5,242.833 36.5,241.5 Z"/></g>
<g><path style="opacity:1" fill="#6d419b" d="M 105.5,242.5 C 122.5,242.5 139.5,242.5 156.5,242.5C 156.5,242.833 156.5,243.167 156.5,243.5C 123.329,243.168 90.3291,243.502 57.5,244.5C 57.1667,244.5 56.8333,244.5 56.5,244.5C 72.4658,242.515 88.7991,241.848 105.5,242.5 Z"/></g>
<g><path style="opacity:1" fill="#6353a3" d="M 57.5,244.5 C 90.3291,243.502 123.329,243.168 156.5,243.5C 156.5,246.167 156.5,248.833 156.5,251.5C 155.539,249.735 155.205,247.735 155.5,245.5C 123.004,244.502 90.3376,244.168 57.5,244.5 Z"/></g>
<g><path style="opacity:1" fill="#6253a3" d="M 169.5,244.5 C 169.5,244.167 169.5,243.833 169.5,243.5C 172.833,243.5 176.167,243.5 179.5,243.5C 179.5,247.167 179.5,250.833 179.5,254.5C 178.778,254.082 178.278,253.416 178,252.5C 177.503,249.854 177.336,247.187 177.5,244.5C 174.833,244.5 172.167,244.5 169.5,244.5 Z"/></g>
<g><path style="opacity:1" fill="#aad05b" d="M 343.5,243.5 C 356.837,243.333 370.171,243.5 383.5,244C 386.02,244.421 388.02,245.588 389.5,247.5C 386.625,246.377 383.625,245.544 380.5,245C 368.505,244.5 356.505,244.333 344.5,244.5C 345.129,252.605 344.129,260.271 341.5,267.5C 341.5,264.833 341.5,262.167 341.5,259.5C 343.26,254.447 343.927,249.114 343.5,243.5 Z"/></g>
<g><path style="opacity:1" fill="#4f3f98" d="M 56.5,244.5 C 56.8333,244.5 57.1667,244.5 57.5,244.5C 90.3376,244.168 123.004,244.502 155.5,245.5C 121.79,245.181 88.1233,245.514 54.5,246.5C 54.8333,245.5 55.5,244.833 56.5,244.5 Z"/></g>
<g><path style="opacity:1" fill="#3f2f90" d="M 155.5,245.5 C 155.205,247.735 155.539,249.735 156.5,251.5C 156.179,256.695 156.513,261.695 157.5,266.5C 157.833,266.5 158.167,266.5 158.5,266.5C 158.337,268.857 158.503,271.19 159,273.5C 159.383,274.056 159.883,274.389 160.5,274.5C 161.451,275.919 161.784,277.585 161.5,279.5C 161.792,283.066 163.126,286.066 165.5,288.5C 166.409,291.991 168.076,294.991 170.5,297.5C 171.877,299.289 172.877,301.289 173.5,303.5C 174.882,306.394 176.882,308.894 179.5,311C 168.3,321.701 157.3,332.534 146.5,343.5C 143.348,345.045 140.681,344.379 138.5,341.5C 109.506,312.506 80.5061,283.506 51.5,254.5C 50.4911,251.202 51.4911,248.535 54.5,246.5C 88.1233,245.514 121.79,245.181 155.5,245.5 Z"/></g>
<g><path style="opacity:1" fill="#d3cde4" d="M 168.5,238.5 C 167.414,246.154 167.414,253.821 168.5,261.5C 165.88,253.824 165.88,246.158 168.5,238.5 Z"/></g>
<g><path style="opacity:1" fill="#8d73b4" d="M 169.5,229.5 C 169.833,229.5 170.167,229.5 170.5,229.5C 169.771,234.13 169.437,238.797 169.5,243.5C 169.5,243.833 169.5,244.167 169.5,244.5C 169.5,250.833 169.5,257.167 169.5,263.5C 169.167,263.5 168.833,263.5 168.5,263.5C 168.5,262.833 168.5,262.167 168.5,261.5C 167.414,253.821 167.414,246.154 168.5,238.5C 168.368,235.43 168.701,232.43 169.5,229.5 Z"/></g>
<g><path style="opacity:1" fill="#453493" d="M 169.5,244.5 C 172.167,244.5 174.833,244.5 177.5,244.5C 177.336,247.187 177.503,249.854 178,252.5C 178.278,253.416 178.778,254.082 179.5,254.5C 179.5,255.167 179.5,255.833 179.5,256.5C 179.336,259.187 179.503,261.854 180,264.5C 180.383,265.056 180.883,265.389 181.5,265.5C 182.613,269.238 183.613,272.904 184.5,276.5C 184.609,279.899 185.942,282.566 188.5,284.5C 190.745,287.32 192.745,290.32 194.5,293.5C 193.267,297.07 190.934,299.737 187.5,301.5C 186.272,300.694 185.272,299.694 184.5,298.5C 183.091,296.028 181.424,293.695 179.5,291.5C 176.032,285.408 173.365,279.075 171.5,272.5C 170.596,271.791 170.263,270.791 170.5,269.5C 170.483,267.435 170.15,265.435 169.5,263.5C 169.5,257.167 169.5,250.833 169.5,244.5 Z"/></g>
<g><path style="opacity:1" fill="#4c4c4c" d="M 185.5,235.5 C 184.322,245.154 184.322,254.821 185.5,264.5C 184.833,262.833 184.167,261.167 183.5,259.5C 183.5,258.833 183.5,258.167 183.5,257.5C 182.87,249.757 183.537,242.424 185.5,235.5 Z"/></g>
<g><path style="opacity:1" fill="#92c947" d="M 320.5,243.5 C 324.167,243.5 327.833,243.5 331.5,243.5C 331.64,249.536 331.307,255.536 330.5,261.5C 330.5,263.5 330.5,265.5 330.5,267.5C 329.883,267.611 329.383,267.944 329,268.5C 327.636,275.897 325.136,282.897 321.5,289.5C 318.893,292.077 316.893,295.077 315.5,298.5C 313.413,299.585 312.08,301.251 311.5,303.5C 309.254,304.955 307.254,306.788 305.5,309C 304.552,309.483 303.552,309.649 302.5,309.5C 300.448,307.122 298.448,304.789 296.5,302.5C 297.167,301.167 297.833,299.833 298.5,298.5C 300.798,297.203 302.798,295.537 304.5,293.5C 309.038,290.285 312.038,285.952 313.5,280.5C 314.955,276.587 316.288,272.587 317.5,268.5C 318.117,268.389 318.617,268.056 319,267.5C 320.022,259.53 320.522,251.53 320.5,243.5 Z"/></g>
<g><path style="opacity:1" fill="#8ec73f" d="M 389.5,247.5 C 390.5,247.833 391.167,248.5 391.5,249.5C 392.167,251.167 392.833,252.833 393.5,254.5C 393.5,298.833 393.5,343.167 393.5,387.5C 390.5,387.5 387.5,387.5 384.5,387.5C 382.628,386.489 380.628,385.655 378.5,385C 368.298,374.631 357.965,364.465 347.5,354.5C 336.223,342.722 324.723,331.056 313,319.5C 312.536,318.906 312.369,318.239 312.5,317.5C 313.833,315.5 315.5,313.833 317.5,312.5C 320.352,312.064 322.019,310.397 322.5,307.5C 323.542,304.07 325.542,301.403 328.5,299.5C 329.5,299.5 330.5,299.5 331.5,299.5C 333.498,293.512 335.498,287.512 337.5,281.5C 338.373,277.879 339.039,274.212 339.5,270.5C 341.048,270.179 341.715,269.179 341.5,267.5C 344.129,260.271 345.129,252.605 344.5,244.5C 356.505,244.333 368.505,244.5 380.5,245C 383.625,245.544 386.625,246.377 389.5,247.5 Z"/></g>
<g><path style="opacity:1" fill="#edeee3" d="M 305.5,206.5 C 307.451,207.716 308.951,209.382 310,211.5C 312.474,216.752 314.641,222.085 316.5,227.5C 316.41,230.152 317.076,232.485 318.5,234.5C 319.473,236.948 319.806,239.615 319.5,242.5C 319.362,251.214 318.695,259.88 317.5,268.5C 316.288,272.587 314.955,276.587 313.5,280.5C 310.625,284.745 307.625,289.078 304.5,293.5C 302.798,295.537 300.798,297.203 298.5,298.5C 298.5,297.5 298.5,296.5 298.5,295.5C 299.167,294.167 299.833,292.833 300.5,291.5C 303.044,290.292 304.378,288.292 304.5,285.5C 304.833,285.5 305.167,285.5 305.5,285.5C 306.401,284.71 307.068,283.71 307.5,282.5C 307.5,282.167 307.5,281.833 307.5,281.5C 311.696,278.352 313.696,274.018 313.5,268.5C 314.167,268.5 314.5,268.167 314.5,267.5C 315.765,266.486 316.431,264.986 316.5,263C 317.489,255.85 317.656,248.683 317,241.5C 316.722,240.584 316.222,239.918 315.5,239.5C 315.5,238.833 315.5,238.167 315.5,237.5C 315.741,235.102 315.074,233.102 313.5,231.5C 313.784,229.585 313.451,227.919 312.5,226.5C 311.812,221.722 309.812,217.722 306.5,214.5C 306.5,213.833 306.5,213.167 306.5,212.5C 305.85,210.565 305.517,208.565 305.5,206.5 Z"/></g>
<g><path style="opacity:0.025" fill="#fefffe" d="M 39.5,247.5 C 41.5,248.167 42.8333,249.5 43.5,251.5C 41.1667,251.167 39.8333,249.833 39.5,247.5 Z"/></g>
<g><path style="opacity:1" fill="#cee5aa" d="M 319.5,242.5 C 320.167,242.5 320.5,242.833 320.5,243.5C 320.522,251.53 320.022,259.53 319,267.5C 318.617,268.056 318.117,268.389 317.5,268.5C 318.695,259.88 319.362,251.214 319.5,242.5 Z"/></g>
<g><path style="opacity:1" fill="#e6f1ce" d="M 341.5,239.5 C 342.167,240.5 342.833,241.5 343.5,242.5C 343.5,242.833 343.5,243.167 343.5,243.5C 343.927,249.114 343.26,254.447 341.5,259.5C 341.5,252.833 341.5,246.167 341.5,239.5 Z"/></g>
<g><path style="opacity:1" fill="#f6eb18" d="M 450.5,245.5 C 451.609,245.557 452.609,245.89 453.5,246.5C 454.167,247.167 454.833,247.833 455.5,248.5C 456.833,251.833 459.167,254.167 462.5,255.5C 463.234,256.708 463.567,258.041 463.5,259.5C 464.5,259.5 465.5,259.5 466.5,259.5C 466.833,260.5 467.5,261.167 468.5,261.5C 470.391,264.58 472.558,267.58 475,270.5C 476.47,271.267 477.97,271.933 479.5,272.5C 479.833,273.5 480.5,274.167 481.5,274.5C 483.521,277.841 485.854,280.841 488.5,283.5C 488.5,287.5 488.5,291.5 488.5,295.5C 487.094,295.973 486.427,296.973 486.5,298.5C 484.11,299.891 482.443,301.891 481.5,304.5C 478.833,306.833 476.167,309.167 473.5,311.5C 471.413,312.585 470.08,314.251 469.5,316.5C 467.856,316.81 466.856,317.81 466.5,319.5C 464.833,320.5 463.5,321.833 462.5,323.5C 459.509,325.123 457.176,327.457 455.5,330.5C 453.833,331.5 452.5,332.833 451.5,334.5C 448.112,337.221 445.112,340.221 442.5,343.5C 439.833,345.833 437.167,348.167 434.5,350.5C 432.413,351.585 431.08,353.251 430.5,355.5C 427.5,357.833 424.833,360.5 422.5,363.5C 419.833,364.167 418.167,365.833 417.5,368.5C 415.167,370.5 412.833,372.5 410.5,374.5C 406.5,378.167 402.5,381.833 398.5,385.5C 396.835,342.343 395.835,299.01 395.5,255.5C 395.5,255.167 395.5,254.833 395.5,254.5C 411.868,255.151 427.868,254.485 443.5,252.5C 446.502,250.824 448.835,248.49 450.5,245.5 Z"/></g>
<g><path style="opacity:0.086" fill="#c0abd3" d="M 38.5,243.5 C 42.5,245.5 45.5,248.5 47.5,252.5C 46.1667,252.167 44.8333,251.833 43.5,251.5C 42.8333,249.5 41.5,248.167 39.5,247.5C 39.1667,246.167 38.8333,244.833 38.5,243.5 Z"/></g>
<g><path style="opacity:1" fill="#c8c8c8" d="M 241.5,241.5 C 240.916,243.257 239.749,244.59 238,245.5C 234.697,247.615 231.197,248.949 227.5,249.5C 222.438,249.726 217.438,249.392 212.5,248.5C 210.302,248.88 208.635,248.213 207.5,246.5C 219.664,249.732 230.998,248.065 241.5,241.5 Z"/></g>
<g><path style="opacity:1" fill="#9e9e9e" d="M 315.5,239.5 C 316.222,239.918 316.722,240.584 317,241.5C 317.656,248.683 317.489,255.85 316.5,263C 316.431,264.986 315.765,266.486 314.5,267.5C 315.15,265.565 315.483,263.565 315.5,261.5C 315.5,254.167 315.5,246.833 315.5,239.5 Z"/></g>
<g><path style="opacity:1" fill="#888888" d="M 212.5,248.5 C 217.438,249.392 222.438,249.726 227.5,249.5C 223.019,250.648 218.352,250.815 213.5,250C 212.944,249.617 212.611,249.117 212.5,248.5 Z"/></g>
<g><path style="opacity:0.941" fill="#f9f26c" d="M 455.5,248.5 C 458.215,250.548 460.548,252.882 462.5,255.5C 459.167,254.167 456.833,251.833 455.5,248.5 Z"/></g>
<g><path style="opacity:1" fill="#f8d426" d="M 391.5,249.5 C 392.812,250.145 393.812,251.145 394.5,252.5C 410.867,253.804 427.201,253.804 443.5,252.5C 427.868,254.485 411.868,255.151 395.5,254.5C 395.167,254.5 394.833,254.5 394.5,254.5C 394.167,254.5 393.833,254.5 393.5,254.5C 392.833,252.833 392.167,251.167 391.5,249.5 Z"/></g>
<g><path style="opacity:1" fill="#cec7e1" d="M 158.5,235.5 C 158.296,245.86 158.629,256.194 159.5,266.5C 159.167,266.5 158.833,266.5 158.5,266.5C 158.167,266.5 157.833,266.5 157.5,266.5C 157.172,255.986 157.506,245.653 158.5,235.5 Z"/></g>
<g><path style="opacity:0.01" fill="#fefffe" d="M 45.5,257.5 C 45.5,297.833 45.5,338.167 45.5,378.5C 44.3054,378.134 43.6387,377.301 43.5,376C 43.3519,337.998 43.5186,299.831 44,261.5C 44.21,259.942 44.71,258.609 45.5,257.5 Z"/></g>
<g><path style="opacity:1" fill="#e6e523" d="M 395.5,255.5 C 395.835,299.01 396.835,342.343 398.5,385.5C 398.5,385.833 398.5,386.167 398.5,386.5C 398.167,386.5 397.833,386.5 397.5,386.5C 395.505,343.179 394.839,299.513 395.5,255.5 Z"/></g>
<g><path style="opacity:0.999" fill="#2a3590" d="M 48.5,256.5 C 50.433,256.729 52.0997,257.562 53.5,259C 83.0355,288.702 112.369,318.535 141.5,348.5C 134.2,355.966 126.7,363.299 119,370.5C 115.206,374.113 112.039,378.113 109.5,382.5C 108.521,385.625 108.187,388.958 108.5,392.5C 90.8056,392.778 73.139,392.445 55.5,391.5C 53.044,388.728 51.044,385.728 49.5,382.5C 48.5059,340.572 48.1726,298.572 48.5,256.5 Z"/></g>
<g><path style="opacity:1" fill="#b6d545" d="M 394.5,254.5 C 394.833,254.5 395.167,254.5 395.5,254.5C 395.5,254.833 395.5,255.167 395.5,255.5C 394.839,299.513 395.505,343.179 397.5,386.5C 397.158,387.338 396.492,387.672 395.5,387.5C 394.501,343.336 394.168,299.003 394.5,254.5 Z"/></g>
<g><path style="opacity:0.984" fill="#faf271" d="M 462.5,255.5 C 464.5,256.167 465.833,257.5 466.5,259.5C 465.5,259.5 464.5,259.5 463.5,259.5C 463.567,258.041 463.234,256.708 462.5,255.5 Z"/></g>
<g><path style="opacity:1" fill="#c6e39f" d="M 331.5,243.5 C 331.833,243.5 332.167,243.5 332.5,243.5C 332.666,249.176 332.499,254.843 332,260.5C 331.617,261.056 331.117,261.389 330.5,261.5C 331.307,255.536 331.64,249.536 331.5,243.5 Z"/></g>
<g><path style="opacity:1" fill="#98cb52" d="M 393.5,254.5 C 393.833,254.5 394.167,254.5 394.5,254.5C 394.168,299.003 394.501,343.336 395.5,387.5C 395.5,387.833 395.5,388.167 395.5,388.5C 395.167,388.5 394.833,388.5 394.5,388.5C 390.958,388.813 387.625,388.479 384.5,387.5C 387.5,387.5 390.5,387.5 393.5,387.5C 393.5,343.167 393.5,298.833 393.5,254.5 Z"/></g>
<g><path style="opacity:0.077" fill="#fefdf0" d="M 455.5,244.5 C 456.239,244.369 456.906,244.536 457.5,245C 467.667,255.167 477.833,265.333 488,275.5C 488.495,277.473 488.662,279.473 488.5,281.5C 486.527,278.861 484.194,276.527 481.5,274.5C 480.5,274.167 479.833,273.5 479.5,272.5C 476.521,268.188 472.855,264.521 468.5,261.5C 467.5,261.167 466.833,260.5 466.5,259.5C 465.833,257.5 464.5,256.167 462.5,255.5C 460.548,252.882 458.215,250.548 455.5,248.5C 454.833,247.833 454.167,247.167 453.5,246.5C 453.5,246.167 453.5,245.833 453.5,245.5C 454.167,245.167 454.833,244.833 455.5,244.5 Z"/></g>
<g><path style="opacity:1" fill="#cacaca" d="M 264.5,260.5 C 266.076,261.143 267.41,262.143 268.5,263.5C 264.5,262.167 260.5,262.167 256.5,263.5C 258.617,261.345 261.284,260.345 264.5,260.5 Z"/></g>
<g><path style="opacity:1" fill="#636363" d="M 264.5,260.5 C 261.284,260.345 258.617,261.345 256.5,263.5C 256.167,263.5 255.833,263.5 255.5,263.5C 255.574,261.589 256.574,260.422 258.5,260C 260.712,259.211 262.712,259.378 264.5,260.5 Z"/></g>
<g><path style="opacity:1" fill="#f8f8f8" d="M 268.5,263.5 C 269.008,266.176 269.175,268.843 269,271.5C 267.366,273.062 265.866,274.729 264.5,276.5C 264.167,276.5 263.833,276.5 263.5,276.5C 261.801,276.66 260.134,276.494 258.5,276C 257.295,274.624 255.962,273.458 254.5,272.5C 254.264,269.391 254.597,266.391 255.5,263.5C 255.833,263.5 256.167,263.5 256.5,263.5C 260.5,262.167 264.5,262.167 268.5,263.5 Z"/></g>
<g><path style="opacity:1" fill="#e1f0cb" d="M 341.5,259.5 C 341.5,262.167 341.5,264.833 341.5,267.5C 341.715,269.179 341.048,270.179 339.5,270.5C 339.808,266.64 340.475,262.974 341.5,259.5 Z"/></g>
<g><path style="opacity:1" fill="#897fba" d="M 179.5,256.5 C 179.833,256.5 180.167,256.5 180.5,256.5C 180.5,257.5 180.5,258.5 180.5,259.5C 180.517,261.565 180.85,263.565 181.5,265.5C 180.883,265.389 180.383,265.056 180,264.5C 179.503,261.854 179.336,259.187 179.5,256.5 Z"/></g>
<g><path style="opacity:1" fill="#737373" d="M 315.5,261.5 C 315.483,263.565 315.15,265.565 314.5,267.5C 314.5,268.167 314.167,268.5 313.5,268.5C 313.41,265.848 314.076,263.515 315.5,261.5 Z"/></g>
<g><path style="opacity:0.91" fill="#f9f26c" d="M 468.5,261.5 C 472.855,264.521 476.521,268.188 479.5,272.5C 477.97,271.933 476.47,271.267 475,270.5C 472.558,267.58 470.391,264.58 468.5,261.5 Z"/></g>
<g><path style="opacity:1" fill="#6d6d6d" d="M 255.5,263.5 C 254.597,266.391 254.264,269.391 254.5,272.5C 253.842,271.207 253.508,269.707 253.5,268C 253.569,266.014 254.235,264.514 255.5,263.5 Z"/></g>
<g><path style="opacity:1" fill="#474747" d="M 269.5,264.5 C 270.748,265.334 271.415,266.667 271.5,268.5C 271.489,270.045 271.156,271.378 270.5,272.5C 270.721,269.721 270.388,267.054 269.5,264.5 Z"/></g>
<g><path style="opacity:1" fill="#bab4d7" d="M 168.5,263.5 C 168.833,263.5 169.167,263.5 169.5,263.5C 170.15,265.435 170.483,267.435 170.5,269.5C 168.926,267.898 168.259,265.898 168.5,263.5 Z"/></g>
<g><path style="opacity:1" fill="#8176b6" d="M 158.5,266.5 C 158.833,266.5 159.167,266.5 159.5,266.5C 159.401,269.237 159.735,271.904 160.5,274.5C 159.883,274.389 159.383,274.056 159,273.5C 158.503,271.19 158.337,268.857 158.5,266.5 Z"/></g>
<g><path style="opacity:0.706" fill="#4d56a2" d="M 47.5,252.5 C 48.7777,252.782 49.7777,253.449 50.5,254.5C 49.8333,255.167 49.1667,255.833 48.5,256.5C 48.1726,298.572 48.5059,340.572 49.5,382.5C 47.5055,341.18 46.8389,299.513 47.5,257.5C 47.5,255.833 47.5,254.167 47.5,252.5 Z"/></g>
<g><path style="opacity:1" fill="#6e6e6e" d="M 187.5,272.5 C 189.213,273.635 189.88,275.302 189.5,277.5C 188.463,276.07 187.796,274.403 187.5,272.5 Z"/></g>
<g><path style="opacity:1" fill="#555555" d="M 254.5,272.5 C 255.962,273.458 257.295,274.624 258.5,276C 260.134,276.494 261.801,276.66 263.5,276.5C 259.357,278.951 256.357,277.618 254.5,272.5 Z"/></g>
<g><path style="opacity:1" fill="#9f9f9f" d="M 268.5,263.5 C 269.167,263.5 269.5,263.833 269.5,264.5C 270.388,267.054 270.721,269.721 270.5,272.5C 268.853,274.326 266.853,275.66 264.5,276.5C 265.866,274.729 267.366,273.062 269,271.5C 269.175,268.843 269.008,266.176 268.5,263.5 Z"/></g>
<g><path style="opacity:1" fill="#8f8f8f" d="M 313.5,268.5 C 313.696,274.018 311.696,278.352 307.5,281.5C 310.232,277.451 312.232,273.117 313.5,268.5 Z"/></g>
<g><path style="opacity:1" fill="#444444" d="M 287.5,278.5 C 283.766,278.323 280.099,278.656 276.5,279.5C 276.611,278.883 276.944,278.383 277.5,278C 281.027,277.192 284.36,277.359 287.5,278.5 Z"/></g>
<g><path style="opacity:0.863" fill="#faf488" d="M 481.5,274.5 C 484.194,276.527 486.527,278.861 488.5,281.5C 488.5,282.167 488.5,282.833 488.5,283.5C 485.854,280.841 483.521,277.841 481.5,274.5 Z"/></g>
<g><path style="opacity:1" fill="#7265ad" d="M 184.5,276.5 C 186.2,278.9 187.533,281.566 188.5,284.5C 185.942,282.566 184.609,279.899 184.5,276.5 Z"/></g>
<g><path style="opacity:1" fill="#f9fafa" d="M 289.5,280.5 C 292.811,281.811 295.145,284.145 296.5,287.5C 295.964,290.698 296.631,293.365 298.5,295.5C 298.5,296.5 298.5,297.5 298.5,298.5C 297.833,299.833 297.167,301.167 296.5,302.5C 290.779,305.384 285.445,308.884 280.5,313C 277.588,313.275 274.921,314.109 272.5,315.5C 268.377,315.798 264.377,316.631 260.5,318C 255.177,318.499 249.844,318.666 244.5,318.5C 242.586,317.815 240.586,317.315 238.5,317C 246.011,316.829 253.345,316.329 260.5,315.5C 265.004,315.381 269.004,314.048 272.5,311.5C 272.833,311.5 273.167,311.5 273.5,311.5C 276.619,310.683 279.619,309.683 282.5,308.5C 282.5,307.5 282.5,306.5 282.5,305.5C 279.099,304.366 275.766,303.032 272.5,301.5C 272.223,299.272 271.223,297.605 269.5,296.5C 269.5,294.167 269.5,291.833 269.5,289.5C 271.231,288.015 272.231,286.015 272.5,283.5C 277.654,279.797 283.321,278.797 289.5,280.5 Z"/></g>
<g><path style="opacity:1" fill="#b1b1b1" d="M 287.5,278.5 C 288.167,279.167 288.833,279.833 289.5,280.5C 283.321,278.797 277.654,279.797 272.5,283.5C 273.167,281.5 274.5,280.167 276.5,279.5C 280.099,278.656 283.766,278.323 287.5,278.5 Z"/></g>
<g><path style="opacity:1" fill="#e1f0cc" d="M 330.5,267.5 C 330.021,272.382 328.855,277.049 327,281.5C 325.88,284.768 324.046,287.435 321.5,289.5C 325.136,282.897 327.636,275.897 329,268.5C 329.383,267.944 329.883,267.611 330.5,267.5 Z"/></g>
<g><path style="opacity:1" fill="#c0bada" d="M 171.5,272.5 C 173.365,279.075 176.032,285.408 179.5,291.5C 174.535,286.311 171.869,279.977 171.5,272.5 Z"/></g>
<g><path style="opacity:1" fill="#656565" d="M 307.5,282.5 C 307.068,283.71 306.401,284.71 305.5,285.5C 305.285,283.821 305.952,282.821 307.5,282.5 Z"/></g>
<g><path style="opacity:1" fill="#877cb9" d="M 161.5,279.5 C 163.277,282.23 164.611,285.23 165.5,288.5C 163.126,286.066 161.792,283.066 161.5,279.5 Z"/></g>
<g><path style="opacity:1" fill="#b5b5b5" d="M 272.5,283.5 C 272.231,286.015 271.231,288.015 269.5,289.5C 269.833,288.167 270.167,286.833 270.5,285.5C 270.5,284.167 271.167,283.5 272.5,283.5 Z"/></g>
<g><path style="opacity:1" fill="#5e5e5e" d="M 304.5,285.5 C 304.378,288.292 303.044,290.292 300.5,291.5C 301.449,289.223 302.782,287.223 304.5,285.5 Z"/></g>
<g><path style="opacity:1" fill="#9c9c9c" d="M 196.5,289.5 C 200.5,292.833 204.167,296.5 207.5,300.5C 202.833,297.833 199.167,294.167 196.5,289.5 Z"/></g>
<g><path style="opacity:1" fill="#bcde8e" d="M 313.5,280.5 C 312.038,285.952 309.038,290.285 304.5,293.5C 307.625,289.078 310.625,284.745 313.5,280.5 Z"/></g>
<g><path style="opacity:1" fill="#beb8d9" d="M 165.5,288.5 C 168.424,290.67 170.091,293.67 170.5,297.5C 168.076,294.991 166.409,291.991 165.5,288.5 Z"/></g>
<g><path style="opacity:1" fill="#626262" d="M 270.5,285.5 C 270.167,286.833 269.833,288.167 269.5,289.5C 269.5,291.833 269.5,294.167 269.5,296.5C 268.359,293.36 268.192,290.027 269,286.5C 269.383,285.944 269.883,285.611 270.5,285.5 Z"/></g>
<g><path style="opacity:1" fill="#797979" d="M 296.5,287.5 C 297.163,289.042 297.83,290.709 298.5,292.5C 299.183,292.137 299.85,291.804 300.5,291.5C 299.833,292.833 299.167,294.167 298.5,295.5C 296.631,293.365 295.964,290.698 296.5,287.5 Z"/></g>
<g><path style="opacity:1" fill="#75a1cf" d="M 195.5,293.5 C 199.167,296.5 202.5,299.833 205.5,303.5C 201.123,301.123 197.79,297.79 195.5,293.5 Z"/></g>
<g><path style="opacity:1" fill="#216bb3" d="M 194.5,293.5 C 194.833,293.5 195.167,293.5 195.5,293.5C 197.79,297.79 201.123,301.123 205.5,303.5C 209.205,306.526 213.205,309.192 217.5,311.5C 220.053,313.584 223.053,314.917 226.5,315.5C 232.009,317.337 237.676,318.67 243.5,319.5C 243.5,322.833 243.5,326.167 243.5,329.5C 240.833,329.5 238.167,329.5 235.5,329.5C 232.167,328.833 228.833,328.167 225.5,327.5C 219.87,325.405 214.537,322.572 209.5,319C 208.207,318.51 206.873,318.343 205.5,318.5C 204.101,317.11 202.434,316.11 200.5,315.5C 198.855,312.521 196.521,310.188 193.5,308.5C 192.5,306.833 191.167,305.5 189.5,304.5C 189.218,303.222 188.551,302.222 187.5,301.5C 190.934,299.737 193.267,297.07 194.5,293.5 Z"/></g>
<g><path style="opacity:1" fill="#a2d162" d="M 337.5,281.5 C 335.498,287.512 333.498,293.512 331.5,299.5C 330.5,299.5 329.5,299.5 328.5,299.5C 331.537,293.305 334.537,287.305 337.5,281.5 Z"/></g>
<g><path style="opacity:1" fill="#6f6f6f" d="M 269.5,296.5 C 271.223,297.605 272.223,299.272 272.5,301.5C 272.5,301.833 272.5,302.167 272.5,302.5C 270.755,300.967 269.755,298.967 269.5,296.5 Z"/></g>
<g><path style="opacity:1" fill="#babedd" d="M 184.5,298.5 C 185.272,299.694 186.272,300.694 187.5,301.5C 188.551,302.222 189.218,303.222 189.5,304.5C 186.043,303.949 184.376,301.949 184.5,298.5 Z"/></g>
<g><path style="opacity:1" fill="#3d3d3d" d="M 207.5,300.5 C 210.546,300.725 212.879,302.058 214.5,304.5C 211.9,303.532 209.566,302.199 207.5,300.5 Z"/></g>
<g><path style="opacity:1" fill="#c4e19c" d="M 315.5,298.5 C 314.92,300.749 313.587,302.415 311.5,303.5C 312.08,301.251 313.413,299.585 315.5,298.5 Z"/></g>
<g><path style="opacity:0.82" fill="#fbf594" d="M 486.5,298.5 C 485.527,301.135 483.86,303.135 481.5,304.5C 482.443,301.891 484.11,299.891 486.5,298.5 Z"/></g>
<g><path style="opacity:1" fill="#41bd9f" d="M 296.5,302.5 C 298.448,304.789 300.448,307.122 302.5,309.5C 301.758,311.426 300.758,313.259 299.5,315C 292.426,320.076 284.759,323.91 276.5,326.5C 273.564,327.406 270.564,328.072 267.5,328.5C 260.201,329.35 252.868,329.683 245.5,329.5C 245.5,326.167 245.5,322.833 245.5,319.5C 250.844,319.666 256.177,319.499 261.5,319C 265.433,318.252 269.1,317.085 272.5,315.5C 274.921,314.109 277.588,313.275 280.5,313C 285.445,308.884 290.779,305.384 296.5,302.5 Z"/></g>
<g><path style="opacity:1" fill="#474747" d="M 215.5,305.5 C 219.727,306.544 223.394,308.544 226.5,311.5C 222.342,310.328 218.675,308.328 215.5,305.5 Z"/></g>
<g><path style="opacity:1" fill="#a2a2a2" d="M 272.5,302.5 C 272.5,302.167 272.5,301.833 272.5,301.5C 275.766,303.032 279.099,304.366 282.5,305.5C 282.5,306.5 282.5,307.5 282.5,308.5C 279.619,309.683 276.619,310.683 273.5,311.5C 275.922,309.732 278.588,308.232 281.5,307C 279.833,306.667 278.167,306.333 276.5,306C 275.295,304.624 273.962,303.458 272.5,302.5 Z"/></g>
<g><path style="opacity:1" fill="#d4d9e0" d="M 180.5,259.5 C 181.776,261.562 182.61,263.896 183,266.5C 183.497,264.19 183.663,261.857 183.5,259.5C 184.167,261.167 184.833,262.833 185.5,264.5C 185.584,267.327 186.25,269.994 187.5,272.5C 187.796,274.403 188.463,276.07 189.5,277.5C 192.321,281.131 194.654,285.131 196.5,289.5C 199.167,294.167 202.833,297.833 207.5,300.5C 209.566,302.199 211.9,303.532 214.5,304.5C 214.5,305.167 214.833,305.5 215.5,305.5C 218.675,308.328 222.342,310.328 226.5,311.5C 227.5,311.5 228.5,311.5 229.5,311.5C 229.611,312.117 229.944,312.617 230.5,313C 240.368,315.209 250.368,316.042 260.5,315.5C 253.345,316.329 246.011,316.829 238.5,317C 240.586,317.315 242.586,317.815 244.5,318.5C 244.5,318.833 244.5,319.167 244.5,319.5C 244.167,319.5 243.833,319.5 243.5,319.5C 237.676,318.67 232.009,317.337 226.5,315.5C 225.097,314.069 223.431,312.902 221.5,312C 220.207,311.51 218.873,311.343 217.5,311.5C 213.205,309.192 209.205,306.526 205.5,303.5C 202.5,299.833 199.167,296.5 195.5,293.5C 195.167,293.5 194.833,293.5 194.5,293.5C 192.745,290.32 190.745,287.32 188.5,284.5C 187.533,281.566 186.2,278.9 184.5,276.5C 183.613,272.904 182.613,269.238 181.5,265.5C 180.85,263.565 180.517,261.565 180.5,259.5 Z"/></g>
<g><path style="opacity:1" fill="#c5d8eb" d="M 193.5,308.5 C 196.521,310.188 198.855,312.521 200.5,315.5C 196.818,314.485 194.485,312.152 193.5,308.5 Z"/></g>
<g><path style="opacity:1" fill="#bbdd8a" d="M 322.5,307.5 C 322.019,310.397 320.352,312.064 317.5,312.5C 318.522,310.145 320.188,308.478 322.5,307.5 Z"/></g>
<g><path style="opacity:1" fill="#4e4e4e" d="M 229.5,311.5 C 240.698,314.408 252.032,315.075 263.5,313.5C 262.5,314.167 261.5,314.833 260.5,315.5C 250.368,316.042 240.368,315.209 230.5,313C 229.944,312.617 229.611,312.117 229.5,311.5 Z"/></g>
<g><path style="opacity:1" fill="#8bb2d8" d="M 217.5,311.5 C 218.873,311.343 220.207,311.51 221.5,312C 223.431,312.902 225.097,314.069 226.5,315.5C 223.053,314.917 220.053,313.584 217.5,311.5 Z"/></g>
<g><path style="opacity:1" fill="#ababab" d="M 272.5,311.5 C 269.004,314.048 265.004,315.381 260.5,315.5C 261.5,314.833 262.5,314.167 263.5,313.5C 266.426,312.539 269.426,311.873 272.5,311.5 Z"/></g>
<g><path style="opacity:1" fill="#1666b1" d="M 173.5,303.5 C 177.853,306.854 181.52,310.854 184.5,315.5C 188.381,318.269 192.048,321.269 195.5,324.5C 196.262,326.262 197.596,327.262 199.5,327.5C 201.725,331.04 205.058,332.706 209.5,332.5C 210.483,333.85 211.816,334.85 213.5,335.5C 217.55,336.605 221.55,337.605 225.5,338.5C 227.265,339.461 229.265,339.795 231.5,339.5C 231.5,340.167 231.833,340.5 232.5,340.5C 235.337,342.402 238.671,343.069 242.5,342.5C 242.5,359.167 242.5,375.833 242.5,392.5C 198.833,392.5 155.167,392.5 111.5,392.5C 112.055,388.988 111.388,385.988 109.5,383.5C 109.5,383.167 109.5,382.833 109.5,382.5C 112.039,378.113 115.206,374.113 119,370.5C 126.7,363.299 134.2,355.966 141.5,348.5C 143.437,347.046 145.103,345.379 146.5,343.5C 157.3,332.534 168.3,321.701 179.5,311C 176.882,308.894 174.882,306.394 173.5,303.5 Z"/></g>
<g><path style="opacity:0.855" fill="#faf488" d="M 473.5,311.5 C 472.92,313.749 471.587,315.415 469.5,316.5C 470.08,314.251 471.413,312.585 473.5,311.5 Z"/></g>
<g><path style="opacity:0.44" fill="#bec2dd" d="M 47.5,257.5 C 46.8389,299.513 47.5055,341.18 49.5,382.5C 49.3253,384.621 49.6586,386.621 50.5,388.5C 47.6375,385.939 46.3041,382.606 46.5,378.5C 46.1681,337.997 46.5014,297.663 47.5,257.5 Z"/></g>
<g><path style="opacity:1" fill="#a5dfd2" d="M 272.5,315.5 C 269.1,317.085 265.433,318.252 261.5,319C 256.177,319.499 250.844,319.666 245.5,319.5C 245.167,319.5 244.833,319.5 244.5,319.5C 244.5,319.167 244.5,318.833 244.5,318.5C 249.844,318.666 255.177,318.499 260.5,318C 264.377,316.631 268.377,315.798 272.5,315.5 Z"/></g>
<g><path style="opacity:0.663" fill="#fbf6aa" d="M 469.5,316.5 C 469.144,318.19 468.144,319.19 466.5,319.5C 466.856,317.81 467.856,316.81 469.5,316.5 Z"/></g>
<g><path style="opacity:1" fill="#38ba9b" d="M 312.5,317.5 C 312.369,318.239 312.536,318.906 313,319.5C 324.723,331.056 336.223,342.722 347.5,354.5C 347.649,355.552 347.483,356.552 347,357.5C 317.949,385.877 289.449,414.544 261.5,443.5C 258.231,445.114 256.564,447.781 256.5,451.5C 255.5,451.5 254.5,451.5 253.5,451.5C 252.237,449.57 250.57,447.903 248.5,446.5C 247.873,445.583 247.539,444.583 247.5,443.5C 245.543,409.617 244.876,375.617 245.5,341.5C 255.278,341.856 264.944,341.023 274.5,339C 282.805,335.359 291.139,331.693 299.5,328C 303.498,324.012 307.831,320.512 312.5,317.5 Z"/></g>
<g><path style="opacity:1" fill="#8fb4d9" d="M 205.5,318.5 C 206.873,318.343 208.207,318.51 209.5,319C 214.537,322.572 219.87,325.405 225.5,327.5C 223.396,327.799 221.396,327.466 219.5,326.5C 214.459,324.318 209.793,321.652 205.5,318.5 Z"/></g>
<g><path style="opacity:1" fill="#bfd4e9" d="M 195.5,324.5 C 198.812,324.149 201.145,325.482 202.5,328.5C 201.391,328.443 200.391,328.11 199.5,327.5C 197.596,327.262 196.262,326.262 195.5,324.5 Z"/></g>
<g><path style="opacity:0.231" fill="#d7daea" d="M 43.5,251.5 C 44.8333,251.833 46.1667,252.167 47.5,252.5C 47.5,254.167 47.5,255.833 47.5,257.5C 46.5014,297.663 46.1681,337.997 46.5,378.5C 46.1667,378.5 45.8333,378.5 45.5,378.5C 45.5,338.167 45.5,297.833 45.5,257.5C 45.3862,255.282 44.7196,253.282 43.5,251.5 Z"/></g>
<g><path style="opacity:1" fill="#5e92c8" d="M 199.5,327.5 C 200.391,328.11 201.391,328.443 202.5,328.5C 204.72,329.979 207.054,331.312 209.5,332.5C 205.058,332.706 201.725,331.04 199.5,327.5 Z"/></g>
<g><path style="opacity:0.447" fill="#fef9c1" d="M 462.5,323.5 C 461.5,327.167 459.167,329.5 455.5,330.5C 457.176,327.457 459.509,325.123 462.5,323.5 Z"/></g>
<g><path style="opacity:1" fill="#5193c1" d="M 243.5,319.5 C 243.833,319.5 244.167,319.5 244.5,319.5C 244.5,323.167 244.5,326.833 244.5,330.5C 241.287,330.81 238.287,330.477 235.5,329.5C 238.167,329.5 240.833,329.5 243.5,329.5C 243.5,326.167 243.5,322.833 243.5,319.5 Z"/></g>
<g><path style="opacity:1" fill="#67c5b5" d="M 244.5,319.5 C 244.833,319.5 245.167,319.5 245.5,319.5C 245.5,322.833 245.5,326.167 245.5,329.5C 252.868,329.683 260.201,329.35 267.5,328.5C 267.082,329.222 266.416,329.722 265.5,330C 258.508,330.5 251.508,330.666 244.5,330.5C 244.5,326.833 244.5,323.167 244.5,319.5 Z"/></g>
<g><path style="opacity:1" fill="#d3ebeb" d="M 276.5,326.5 C 273.983,328.735 270.983,330.235 267.5,331C 256.167,331.667 244.833,331.667 233.5,331C 230.499,330.262 227.832,329.096 225.5,327.5C 228.833,328.167 232.167,328.833 235.5,329.5C 238.287,330.477 241.287,330.81 244.5,330.5C 251.508,330.666 258.508,330.5 265.5,330C 266.416,329.722 267.082,329.222 267.5,328.5C 270.564,328.072 273.564,327.406 276.5,326.5 Z"/></g>
<g><path style="opacity:1" fill="#4b4a9d" d="M 50.5,254.5 C 50.8333,254.5 51.1667,254.5 51.5,254.5C 80.5061,283.506 109.506,312.506 138.5,341.5C 140.681,344.379 143.348,345.045 146.5,343.5C 145.103,345.379 143.437,347.046 141.5,348.5C 112.369,318.535 83.0355,288.702 53.5,259C 52.0997,257.562 50.433,256.729 48.5,256.5C 49.1667,255.833 49.8333,255.167 50.5,254.5 Z"/></g>
<g><path style="opacity:1" fill="#83add5" d="M 209.5,332.5 C 214.979,334.498 220.312,336.498 225.5,338.5C 221.55,337.605 217.55,336.605 213.5,335.5C 211.816,334.85 210.483,333.85 209.5,332.5 Z"/></g>
<g><path style="opacity:0.451" fill="#fdf9c1" d="M 451.5,334.5 C 451.461,335.583 451.127,336.583 450.5,337.5C 447.835,339.685 445.169,341.685 442.5,343.5C 445.112,340.221 448.112,337.221 451.5,334.5 Z"/></g>
<g><path style="opacity:1" fill="#b2cce4" d="M 231.5,339.5 C 236.1,339.28 240.433,339.946 244.5,341.5C 240.4,341.763 236.4,341.43 232.5,340.5C 231.833,340.5 231.5,340.167 231.5,339.5 Z"/></g>
<g><path style="opacity:0.152" fill="#fefdf3" d="M 488.5,295.5 C 488.74,298.579 488.407,301.579 487.5,304.5C 460.193,331.474 433.193,358.807 406.5,386.5C 403.949,387.604 401.616,388.938 399.5,390.5C 399.179,388.952 398.179,388.285 396.5,388.5C 396.167,388.5 395.833,388.5 395.5,388.5C 395.5,388.167 395.5,387.833 395.5,387.5C 396.492,387.672 397.158,387.338 397.5,386.5C 397.833,386.5 398.167,386.5 398.5,386.5C 403.5,383.5 407.5,379.5 410.5,374.5C 412.833,372.5 415.167,370.5 417.5,368.5C 419.5,367.167 421.167,365.5 422.5,363.5C 424.833,360.5 427.5,357.833 430.5,355.5C 432.587,354.415 433.92,352.749 434.5,350.5C 437.167,348.167 439.833,345.833 442.5,343.5C 445.169,341.685 447.835,339.685 450.5,337.5C 451.127,336.583 451.461,335.583 451.5,334.5C 452.5,332.833 453.833,331.5 455.5,330.5C 459.167,329.5 461.5,327.167 462.5,323.5C 463.5,321.833 464.833,320.5 466.5,319.5C 468.144,319.19 469.144,318.19 469.5,316.5C 471.587,315.415 472.92,313.749 473.5,311.5C 476.167,309.167 478.833,306.833 481.5,304.5C 483.86,303.135 485.527,301.135 486.5,298.5C 486.427,296.973 487.094,295.973 488.5,295.5 Z"/></g>
<g><path style="opacity:0.875" fill="#fbf48c" d="M 434.5,350.5 C 433.92,352.749 432.587,354.415 430.5,355.5C 431.08,353.251 432.413,351.585 434.5,350.5 Z"/></g>
<g><path style="opacity:1" fill="#1cad4c" d="M 347.5,354.5 C 357.965,364.465 368.298,374.631 378.5,385C 380.628,385.655 382.628,386.489 384.5,387.5C 387.625,388.479 390.958,388.813 394.5,388.5C 394.776,405.528 394.443,422.528 393.5,439.5C 392.833,441.5 392.167,443.5 391.5,445.5C 389.866,446.207 388.532,447.373 387.5,449C 385.846,449.608 384.179,450.108 382.5,450.5C 341.167,450.5 299.833,450.5 258.5,450.5C 259.011,447.978 260.011,445.645 261.5,443.5C 289.449,414.544 317.949,385.877 347,357.5C 347.483,356.552 347.649,355.552 347.5,354.5 Z"/></g>
<g><path style="opacity:0.867" fill="#fbf48f" d="M 422.5,363.5 C 421.167,365.5 419.5,367.167 417.5,368.5C 418.167,365.833 419.833,364.167 422.5,363.5 Z"/></g>
<g><path style="opacity:0.875" fill="#faf48e" d="M 410.5,374.5 C 407.5,379.5 403.5,383.5 398.5,386.5C 398.5,386.167 398.5,385.833 398.5,385.5C 402.5,381.833 406.5,378.167 410.5,374.5 Z"/></g>
<g><path style="opacity:0.784" fill="#575ea7" d="M 49.5,382.5 C 51.044,385.728 53.044,388.728 55.5,391.5C 53.5887,390.925 51.922,389.925 50.5,388.5C 49.6586,386.621 49.3253,384.621 49.5,382.5 Z"/></g>
<g><path style="opacity:0.119" fill="#fcfdfd" d="M 396.5,388.5 C 398.179,388.285 399.179,388.952 399.5,390.5C 399.667,406.837 399.5,423.17 399,439.5C 398.631,447.7 394.464,452.7 386.5,454.5C 342.5,455.167 298.5,455.833 254.5,456.5C 247.791,463.209 241.125,469.875 234.5,476.5C 235.285,472.932 236.618,469.599 238.5,466.5C 239.222,465.449 240.222,464.782 241.5,464.5C 243.048,464.179 243.715,463.179 243.5,461.5C 246.285,461.067 248.619,459.734 250.5,457.5C 251.705,456.423 252.372,455.09 252.5,453.5C 252.328,452.508 252.662,451.842 253.5,451.5C 254.5,451.5 255.5,451.5 256.5,451.5C 257.5,451.5 258.5,451.5 259.5,451.5C 279.322,452.833 299.489,453.5 320,453.5C 340.511,453.5 360.678,452.833 380.5,451.5C 381.167,451.5 381.833,451.5 382.5,451.5C 387.027,451.672 390.027,449.672 391.5,445.5C 393.054,444.086 394.388,442.419 395.5,440.5C 396.5,423.179 396.833,405.846 396.5,388.5 Z"/></g>
<g><path style="opacity:0.934" fill="#424e9d" d="M 109.5,382.5 C 109.5,382.833 109.5,383.167 109.5,383.5C 109.5,386.833 109.5,390.167 109.5,393.5C 91.7566,393.819 74.0899,393.486 56.5,392.5C 55.8333,392.5 55.5,392.167 55.5,391.5C 73.139,392.445 90.8056,392.778 108.5,392.5C 108.187,388.958 108.521,385.625 109.5,382.5 Z"/></g>
<g><path style="opacity:1" fill="#2677b5" d="M 232.5,340.5 C 236.4,341.43 240.4,341.763 244.5,341.5C 244.83,359.008 244.497,376.341 243.5,393.5C 199.167,393.5 154.833,393.5 110.5,393.5C 110.167,393.5 109.833,393.5 109.5,393.5C 109.5,390.167 109.5,386.833 109.5,383.5C 111.388,385.988 112.055,388.988 111.5,392.5C 155.167,392.5 198.833,392.5 242.5,392.5C 242.5,375.833 242.5,359.167 242.5,342.5C 238.671,343.069 235.337,342.402 232.5,340.5 Z"/></g>
<g><path style="opacity:0.76" fill="#959bc7" d="M 56.5,392.5 C 74.0899,393.486 91.7566,393.819 109.5,393.5C 109.833,393.5 110.167,393.5 110.5,393.5C 110.5,393.833 110.5,394.167 110.5,394.5C 93.8333,394.5 77.1667,394.5 60.5,394.5C 58.5168,394.843 57.1834,394.176 56.5,392.5 Z"/></g>
<g><path style="opacity:0.999" fill="#36b2b1" d="M 244.5,341.5 C 244.833,341.5 245.167,341.5 245.5,341.5C 244.876,375.617 245.543,409.617 247.5,443.5C 245.416,441.725 244.249,439.392 244,436.5C 243.5,422.171 243.333,407.837 243.5,393.5C 244.497,376.341 244.83,359.008 244.5,341.5 Z"/></g>
<g><path style="opacity:0.047" fill="#f9fbfc" d="M 45.5,378.5 C 45.8333,378.5 46.1667,378.5 46.5,378.5C 46.3041,382.606 47.6375,385.939 50.5,388.5C 51.922,389.925 53.5887,390.925 55.5,391.5C 55.5,392.167 55.8333,392.5 56.5,392.5C 57.1834,394.176 58.5168,394.843 60.5,394.5C 76.7998,396.485 93.4665,397.152 110.5,396.5C 112.167,398.167 113.833,399.833 115.5,401.5C 116.167,403.5 116.833,405.5 117.5,407.5C 114.409,404.876 111.409,402.043 108.5,399C 92.1667,398.667 75.8333,398.333 59.5,398C 49.3154,395.465 44.6488,388.965 45.5,378.5 Z"/></g>
<g><path style="opacity:0.244" fill="#dadceb" d="M 60.5,394.5 C 77.1667,394.5 93.8333,394.5 110.5,394.5C 110.5,395.167 110.5,395.833 110.5,396.5C 93.4665,397.152 76.7998,396.485 60.5,394.5 Z"/></g>
<g><path style="opacity:1" fill="#0da2c8" d="M 110.5,393.5 C 154.833,393.5 199.167,393.5 243.5,393.5C 243.333,407.837 243.5,422.171 244,436.5C 244.249,439.392 245.416,441.725 247.5,443.5C 247.539,444.583 247.873,445.583 248.5,446.5C 250.57,447.903 252.237,449.57 253.5,451.5C 252.662,451.842 252.328,452.508 252.5,453.5C 247.5,455.833 243.833,459.5 241.5,464.5C 240.222,464.782 239.222,465.449 238.5,466.5C 232.06,472.536 225.727,478.702 219.5,485C 211.82,489.985 204.487,489.485 197.5,483.5C 188.451,474.119 179.451,464.786 170.5,455.5C 170.229,453.688 169.562,452.022 168.5,450.5C 163.887,448.139 159.887,445.139 156.5,441.5C 154.212,437.523 151.212,434.19 147.5,431.5C 146.614,430.675 146.281,429.675 146.5,428.5C 145.167,428.5 143.833,428.5 142.5,428.5C 133.439,419.439 124.439,410.439 115.5,401.5C 113.833,399.833 112.167,398.167 110.5,396.5C 110.5,395.833 110.5,395.167 110.5,394.5C 110.5,394.167 110.5,393.833 110.5,393.5 Z"/></g>
<g><path style="opacity:0.875" fill="#50bf74" d="M 394.5,388.5 C 394.833,388.5 395.167,388.5 395.5,388.5C 396.152,405.866 395.486,422.866 393.5,439.5C 394.443,422.528 394.776,405.528 394.5,388.5 Z"/></g>
<g><path style="opacity:0.682" fill="#bee6cb" d="M 395.5,388.5 C 395.833,388.5 396.167,388.5 396.5,388.5C 396.833,405.846 396.5,423.179 395.5,440.5C 394.388,442.419 393.054,444.086 391.5,445.5C 392.167,443.5 392.833,441.5 393.5,439.5C 395.486,422.866 396.152,405.866 395.5,388.5 Z"/></g>
<g><path style="opacity:0.949" fill="#4bb6d4" d="M 142.5,428.5 C 143.833,428.5 145.167,428.5 146.5,428.5C 146.281,429.675 146.614,430.675 147.5,431.5C 151.212,434.19 154.212,437.523 156.5,441.5C 159.887,445.139 163.887,448.139 168.5,450.5C 169.562,452.022 170.229,453.688 170.5,455.5C 168.203,453.883 165.87,452.217 163.5,450.5C 156.885,442.883 149.885,435.55 142.5,428.5 Z"/></g>
<g><path style="opacity:0.659" fill="#c5ead1" d="M 391.5,445.5 C 390.027,449.672 387.027,451.672 382.5,451.5C 382.5,451.167 382.5,450.833 382.5,450.5C 384.179,450.108 385.846,449.608 387.5,449C 388.532,447.373 389.866,446.207 391.5,445.5 Z"/></g>
<g><path style="opacity:0.883" fill="#51c077" d="M 261.5,443.5 C 260.011,445.645 259.011,447.978 258.5,450.5C 299.833,450.5 341.167,450.5 382.5,450.5C 382.5,450.833 382.5,451.167 382.5,451.5C 381.833,451.5 381.167,451.5 380.5,451.5C 340.167,451.5 299.833,451.5 259.5,451.5C 258.5,451.5 257.5,451.5 256.5,451.5C 256.564,447.781 258.231,445.114 261.5,443.5 Z"/></g>
<g><path style="opacity:0.458" fill="#c8ebd4" d="M 259.5,451.5 C 299.833,451.5 340.167,451.5 380.5,451.5C 360.678,452.833 340.511,453.5 320,453.5C 299.489,453.5 279.322,452.833 259.5,451.5 Z"/></g>
<g><path style="opacity:0.424" fill="#cfecf4" d="M 252.5,453.5 C 252.372,455.09 251.705,456.423 250.5,457.5C 248.619,459.734 246.285,461.067 243.5,461.5C 243.715,463.179 243.048,464.179 241.5,464.5C 243.833,459.5 247.5,455.833 252.5,453.5 Z"/></g>
<g><path style="opacity:0.086" fill="#ebf6f9" d="M 115.5,401.5 C 124.439,410.439 133.439,419.439 142.5,428.5C 149.885,435.55 156.885,442.883 163.5,450.5C 165.87,452.217 168.203,453.883 170.5,455.5C 179.451,464.786 188.451,474.119 197.5,483.5C 204.487,489.485 211.82,489.985 219.5,485C 225.727,478.702 232.06,472.536 238.5,466.5C 236.618,469.599 235.285,472.932 234.5,476.5C 229.622,482.871 223.622,488.038 216.5,492C 210.627,492.951 204.96,492.285 199.5,490C 171.713,463.046 144.379,435.546 117.5,407.5C 116.833,405.5 116.167,403.5 115.5,401.5 Z"/></g>
</svg>
